<svg version="1.1" id="Layer_1" xmlns="http://www.w3.org/2000/svg" xmlns:xlink="http://www.w3.org/1999/xlink" x="0px" y="0px"
	 width="100%" viewBox="0 0 3968 4288" enable-background="new 0 0 3968 4288" xml:space="preserve">

<path fill="#68BF8B" opacity="1.000000" stroke="none" 
	d="
M1995.660156,1756.913574 
	C2161.632568,1756.789429 2327.604736,1756.644287 2493.577148,1756.553589 
	C2545.568848,1756.525269 2597.561768,1756.444214 2649.551270,1756.813965 
	C2665.489746,1756.927246 2681.428467,1758.309082 2697.349609,1759.372681 
	C2735.558350,1761.925537 2763.508301,1781.775757 2784.569336,1812.356567 
	C2795.645020,1828.438721 2803.300781,1846.069580 2804.396484,1866.044556 
	C2805.380127,1883.984131 2807.645996,1901.902222 2807.708008,1919.835327 
	C2808.056152,2020.481445 2807.603271,2121.130859 2808.103271,2221.775635 
	C2808.269287,2255.166748 2798.445557,2284.547119 2775.644287,2311.510742 
	C2764.101318,2313.371094 2760.360840,2318.993408 2759.868164,2327.427246 
	C2754.406738,2331.593750 2748.945068,2335.760010 2740.987061,2340.346680 
	C2736.398926,2341.968750 2734.307129,2343.170654 2732.215088,2344.372314 
	C2730.256592,2345.582520 2728.297852,2346.792725 2724.327148,2347.434570 
	C2717.549561,2344.938477 2714.716797,2347.688477 2712.144531,2351.067871 
	C2709.142822,2351.590088 2706.141357,2352.112305 2700.190918,2351.625977 
	C2690.702393,2349.739990 2684.186035,2348.533691 2677.617432,2348.073486 
	C2670.320312,2347.562744 2662.945312,2348.076172 2655.667480,2347.429688 
	C2652.879883,2347.181641 2650.267334,2344.960938 2648.007812,2343.851562 
	C2648.247070,2341.756836 2648.117188,2340.968262 2648.435547,2340.460449 
	C2649.489746,2338.779297 2650.707031,2337.200928 2651.858887,2335.581055 
	C2661.539795,2321.965332 2661.484619,2318.302490 2651.743652,2305.729248 
	C2647.670166,2300.471191 2643.714111,2295.117188 2639.853760,2289.700439 
	C2631.469971,2277.937256 2627.445068,2264.993164 2627.819580,2250.344482 
	C2628.055664,2241.103516 2626.904785,2231.750488 2625.549316,2222.569580 
	C2624.444580,2215.087891 2624.147705,2207.779053 2627.687500,2201.099854 
	C2634.541504,2188.167236 2629.192383,2177.838867 2621.033691,2168.336182 
	C2617.650879,2164.396484 2613.215576,2161.024658 2608.647705,2158.501709 
	C2594.908936,2150.914307 2589.682617,2138.521484 2588.311523,2123.944580 
	C2587.689453,2117.335205 2587.887451,2110.627441 2588.036377,2103.971680 
	C2588.322510,2091.219727 2587.074707,2078.937012 2582.333496,2066.770020 
	C2579.525879,2059.565918 2578.003418,2051.022217 2578.864990,2043.416504 
	C2580.295898,2030.786621 2577.065186,2019.687134 2572.153076,2008.641968 
	C2569.717773,2003.166626 2566.724365,1997.933960 2564.399414,1992.416138 
	C2553.232666,1965.913940 2560.526123,1938.494263 2582.843750,1920.684814 
	C2590.618408,1914.480591 2597.771484,1907.476562 2604.982666,1900.601318 
	C2606.827148,1898.842773 2607.989258,1896.269653 2609.145020,1893.913940 
	C2610.515381,1891.120117 2608.504150,1886.431396 2605.457520,1885.739380 
	C2601.597412,1884.862549 2597.606689,1884.564575 2593.674316,1884.002930 
	C2587.767822,1883.159424 2581.458008,1883.355347 2576.030273,1881.264404 
	C2556.310303,1873.667358 2537.226318,1874.611328 2517.651855,1882.130493 
	C2506.536377,1886.400146 2494.826904,1888.838501 2482.407471,1886.714111 
	C2471.976562,1884.929932 2461.269043,1884.448120 2450.660156,1884.076172 
	C2420.766602,1883.028198 2390.699463,1886.461670 2360.992676,1880.391602 
	C2357.777832,1879.734741 2354.349365,1880.014526 2351.020996,1880.038452 
	C2316.857422,1880.284424 2283.457764,1874.020508 2250.212891,1867.349731 
	C2231.614258,1863.617676 2213.259766,1863.253540 2194.637451,1865.466064 
	C2187.378662,1866.328491 2180.122070,1867.757568 2172.851318,1867.843628 
	C2162.033691,1867.971924 2151.815186,1870.241333 2141.527588,1873.344482 
	C2129.441895,1876.989990 2117.151367,1880.182129 2104.743408,1882.437012 
	C2098.394531,1883.590698 2091.150635,1883.695801 2085.084717,1881.799927 
	C2067.217529,1876.215698 2049.353271,1872.140259 2030.504272,1870.868042 
	C2010.751709,1869.534912 1997.091675,1858.730713 1992.740356,1838.306763 
	C1992.186768,1835.708496 1991.576172,1833.099243 1990.697266,1830.598755 
	C1989.190552,1826.313232 1985.491455,1824.840576 1981.461060,1823.931519 
	C1980.978760,1805.257935 1980.496338,1786.584229 1980.920410,1765.562988 
	C1986.437866,1761.114624 1991.049072,1759.014160 1995.660156,1756.913574 
z"/>
<path fill="#69C08C" opacity="1.000000" stroke="none" 
	d="
M1663.967896,1164.330566 
	C1673.487427,1164.052979 1683.006958,1163.775391 1695.001221,1164.332886 
	C1699.639648,1164.898926 1701.803223,1164.630005 1703.966797,1164.361084 
	C1724.069824,1164.197144 1744.172729,1164.033203 1766.121094,1165.799316 
	C1767.379761,1178.844360 1769.518555,1188.905640 1778.504517,1196.587524 
	C1785.843506,1202.861572 1786.630249,1210.608521 1785.421509,1220.048218 
	C1782.969116,1239.201538 1782.704468,1258.538208 1786.297729,1277.720093 
	C1786.906006,1280.967163 1787.704102,1284.478271 1787.087646,1287.605835 
	C1783.376831,1306.434937 1785.208008,1326.330200 1776.063843,1344.131592 
	C1772.272095,1351.513306 1772.293823,1359.332275 1773.778198,1367.502319 
	C1776.516602,1382.574219 1779.758057,1397.314697 1785.173218,1411.829468 
	C1795.621582,1439.835205 1794.594116,1467.866699 1780.132690,1494.621338 
	C1776.808716,1500.770874 1777.887817,1505.698730 1781.408569,1511.289917 
	C1785.989624,1518.564941 1789.193604,1526.731079 1793.984741,1533.843872 
	C1801.241089,1544.616333 1798.214966,1554.363525 1791.739746,1563.477783 
	C1787.980103,1568.769531 1782.826660,1573.211670 1777.788452,1577.423950 
	C1768.535767,1585.159668 1759.620850,1593.104004 1754.002197,1604.022827 
	C1749.953979,1611.889648 1744.347534,1618.359375 1737.057373,1623.343506 
	C1732.471924,1626.478516 1729.251343,1630.526367 1726.626465,1636.405518 
	C1718.188354,1639.052979 1711.122559,1641.308472 1702.263672,1643.593262 
	C1683.436279,1645.010376 1666.405029,1646.437866 1649.366943,1647.776978 
	C1623.565063,1649.804932 1598.248047,1644.265625 1571.367676,1642.146484 
	C1561.847290,1638.810059 1553.544922,1636.339355 1545.424927,1633.370483 
	C1488.423462,1612.529663 1445.628784,1575.965698 1419.756104,1520.352905 
	C1412.706543,1505.199951 1406.574341,1489.852661 1402.324341,1473.680176 
	C1398.947510,1460.829956 1394.855957,1448.167725 1391.081665,1435.421997 
	C1386.825684,1389.570801 1388.618286,1343.599365 1388.488770,1297.672119 
	C1388.439941,1280.340942 1389.597656,1262.972900 1396.056396,1246.611572 
	C1412.344727,1205.349731 1441.471313,1178.363892 1485.163696,1168.380615 
	C1495.478760,1166.023804 1506.154297,1165.244507 1519.841797,1164.749756 
	C1526.256836,1166.438843 1529.488281,1167.672485 1532.732178,1167.706177 
	C1554.001953,1167.927734 1575.277954,1168.109619 1596.543701,1167.778687 
	C1601.694946,1167.698486 1606.815796,1165.648315 1611.950562,1164.504028 
	C1624.118652,1164.221802 1636.286743,1163.939575 1651.165894,1164.554199 
	C1657.488892,1167.313354 1660.810059,1166.557495 1663.967896,1164.330566 
z"/>
<path fill="#68BF8B" opacity="1.000000" stroke="none" 
	d="
M1391.538330,2628.040771 
	C1391.161255,2622.083984 1390.482666,2616.128174 1390.459473,2610.169922 
	C1390.360962,2584.876953 1390.537354,2559.582764 1390.465332,2534.289551 
	C1390.299072,2475.920898 1414.687378,2428.916992 1457.676758,2390.991699 
	C1475.312744,2375.433105 1495.900391,2364.427246 1518.988647,2358.925293 
	C1531.238525,2356.006104 1543.678955,2353.886719 1558.609375,2351.425293 
	C1562.539551,2351.389404 1563.617798,2350.815430 1564.420044,2349.722656 
	C1609.683228,2349.399902 1654.946289,2349.076904 1702.518311,2349.304199 
	C1704.827026,2349.854492 1706.704224,2350.016602 1706.704224,2350.016602 
	C1706.704224,2350.016602 1708.245850,2348.981689 1708.245850,2348.981689 
	C1711.142212,2348.924316 1714.038696,2348.866943 1719.752808,2349.442383 
	C1732.244507,2350.979736 1741.927002,2352.068359 1751.406982,2348.750488 
	C1824.824829,2349.060791 1898.242798,2349.371338 1973.541748,2351.134277 
	C1976.276733,2359.047363 1972.919434,2364.127686 1969.555176,2368.969727 
	C1963.531372,2377.638916 1957.360107,2386.233398 1950.778320,2394.482422 
	C1926.896484,2424.413330 1902.610840,2454.024414 1878.921753,2484.105957 
	C1869.958496,2495.487549 1862.201660,2507.819580 1852.849609,2520.229980 
	C1847.807983,2524.468506 1843.811523,2528.195068 1838.351318,2532.083496 
	C1830.790039,2534.697266 1824.616211,2536.977295 1818.616699,2539.648682 
	C1812.578003,2542.337646 1806.993896,2546.715088 1800.717407,2548.073975 
	C1783.260742,2551.853027 1766.646240,2558.573730 1748.666138,2560.812256 
	C1730.113647,2563.121826 1711.949829,2568.217041 1702.093994,2587.104736 
	C1699.497314,2592.081055 1695.013062,2594.896240 1689.298218,2595.482666 
	C1674.796875,2596.970459 1660.324585,2599.136719 1645.786499,2599.749512 
	C1633.662720,2600.260498 1621.929321,2601.672607 1610.934326,2606.798584 
	C1599.651245,2612.058594 1587.722656,2613.472412 1575.901611,2611.175781 
	C1563.699829,2608.805420 1552.093994,2610.408447 1540.464355,2613.095947 
	C1529.481079,2615.634277 1518.560303,2618.581543 1507.818970,2621.999023 
	C1487.803101,2628.367432 1467.252686,2630.030029 1446.782349,2626.934570 
	C1428.108887,2624.110840 1409.913818,2626.110352 1391.538330,2628.040771 
z"/>
<path fill="#69C08C" opacity="1.000000" stroke="none" 
	d="
M2680.443848,1165.162720 
	C2702.347900,1162.687988 2724.233398,1162.553955 2746.094727,1165.666626 
	C2757.953613,1167.354980 2769.900391,1168.576294 2781.657959,1170.798706 
	C2837.911621,1181.431519 2885.538818,1207.688232 2922.787109,1251.349854 
	C2950.312988,1283.615112 2964.730957,1322.093018 2971.817383,1363.457886 
	C2980.075684,1411.662598 2975.664062,1459.094971 2960.747314,1505.415894 
	C2950.909668,1535.963257 2936.325195,1564.409790 2918.056641,1590.869629 
	C2917.124756,1592.219604 2915.285400,1592.943115 2912.830078,1594.702271 
	C2910.330811,1587.253540 2911.839600,1580.806030 2912.188721,1574.345581 
	C2913.192383,1555.753296 2914.109863,1537.151001 2914.657715,1518.540894 
	C2915.194580,1500.320190 2910.153564,1482.945923 2905.224365,1465.692017 
	C2896.810059,1436.239258 2878.128906,1413.990723 2853.701416,1396.547852 
	C2823.411621,1374.918457 2789.461426,1362.625610 2752.691406,1356.260864 
	C2723.820312,1351.263306 2695.709961,1354.322632 2667.332764,1358.052002 
	C2660.740723,1358.918335 2654.152100,1359.811646 2645.401367,1359.078857 
	C2638.135986,1343.926147 2626.031738,1341.539429 2614.105469,1340.619995 
	C2598.291992,1339.400879 2582.349854,1338.905640 2566.572998,1342.250488 
	C2558.157471,1344.034668 2549.586426,1345.079590 2541.095947,1346.519165 
	C2535.555908,1347.458374 2530.829102,1346.122192 2526.226074,1342.739380 
	C2520.416748,1338.469849 2514.051514,1334.965820 2508.051270,1330.944092 
	C2504.224609,1328.379272 2500.246582,1325.859619 2496.994873,1322.651978 
	C2486.824951,1312.619629 2485.099121,1302.428467 2493.274902,1290.649414 
	C2498.680420,1282.861694 2500.861816,1275.284302 2498.522217,1266.457642 
	C2495.394775,1254.659180 2500.472168,1245.976807 2508.179443,1237.880615 
	C2516.186279,1229.469971 2526.370605,1224.959961 2536.715820,1220.314575 
	C2548.763184,1214.905029 2560.444824,1208.649048 2572.105469,1202.423218 
	C2578.122314,1199.210938 2582.741211,1194.495972 2585.193848,1186.663452 
	C2614.969238,1177.794312 2643.498291,1170.159546 2673.159668,1167.798950 
	C2675.642090,1167.601440 2678.018311,1166.072876 2680.443848,1165.162720 
z"/>
<path fill="#64B787" opacity="1.000000" stroke="none" 
	d="
M1727.999023,1636.013428 
	C1729.251343,1630.526367 1732.471924,1626.478516 1737.057373,1623.343506 
	C1744.347534,1618.359375 1749.953979,1611.889648 1754.002197,1604.022827 
	C1759.620850,1593.104004 1768.535767,1585.159668 1777.788452,1577.423950 
	C1782.826660,1573.211670 1787.980103,1568.769531 1791.739746,1563.477783 
	C1798.214966,1554.363525 1801.241089,1544.616333 1793.984741,1533.843872 
	C1789.193604,1526.731079 1785.989624,1518.564941 1781.408569,1511.289917 
	C1777.887817,1505.698730 1776.808716,1500.770874 1780.132690,1494.621338 
	C1794.594116,1467.866699 1795.621582,1439.835205 1785.173218,1411.829468 
	C1779.758057,1397.314697 1776.516602,1382.574219 1773.778198,1367.502319 
	C1772.293823,1359.332275 1772.272095,1351.513306 1776.063843,1344.131592 
	C1785.208008,1326.330200 1783.376831,1306.434937 1787.087646,1287.605835 
	C1787.704102,1284.478271 1786.906006,1280.967163 1786.297729,1277.720093 
	C1782.704468,1258.538208 1782.969116,1239.201538 1785.421509,1220.048218 
	C1786.630249,1210.608521 1785.843506,1202.861572 1778.504517,1196.587524 
	C1769.518555,1188.905640 1767.379761,1178.844360 1767.960327,1166.129517 
	C1795.553223,1164.097168 1823.151123,1163.467651 1850.751831,1163.298584 
	C1870.477905,1163.177734 1890.207886,1163.674438 1911.181396,1165.810303 
	C1908.751831,1177.738403 1908.200073,1187.066162 1916.921753,1195.244629 
	C1923.432373,1201.350098 1923.621826,1209.111084 1921.776001,1217.446533 
	C1919.160522,1229.257568 1918.910645,1241.329712 1921.562134,1253.109497 
	C1925.357666,1269.971313 1928.944458,1286.994507 1934.462769,1303.326294 
	C1942.232544,1326.321899 1941.852417,1348.915771 1935.414673,1371.853271 
	C1933.977295,1376.974609 1932.769775,1382.164673 1931.202148,1387.244507 
	C1928.164673,1397.086304 1928.040283,1406.741577 1931.497070,1416.594971 
	C1938.661987,1437.018799 1934.826416,1458.852539 1939.162476,1479.671143 
	C1939.420776,1480.910889 1938.936279,1482.303833 1938.806396,1483.626343 
	C1937.833496,1493.528931 1936.398071,1503.414307 1936.026978,1513.339355 
	C1935.681030,1522.594849 1932.487793,1530.171387 1925.671875,1536.224487 
	C1918.727295,1542.391602 1911.783813,1548.580566 1904.533325,1554.376587 
	C1897.465332,1560.026611 1892.217651,1566.481934 1890.747803,1576.625854 
	C1858.169189,1594.289429 1824.832642,1606.770142 1790.459961,1620.523560 
	C1781.467896,1623.156982 1774.036133,1625.890503 1766.389404,1627.730713 
	C1753.665161,1630.793213 1740.803101,1633.282593 1727.999023,1636.013428 
z"/>
<path fill="#58A57B" opacity="1.000000" stroke="none" 
	d="
M2019.224609,1164.128540 
	C2025.148438,1163.777954 2031.073486,1163.104980 2036.995728,1163.130249 
	C2070.085205,1163.271973 2103.174072,1163.582520 2138.137695,1165.672852 
	C2139.353760,1177.504517 2143.268555,1185.536987 2150.200439,1192.536133 
	C2156.732178,1199.131226 2158.649658,1207.026611 2157.180420,1216.378296 
	C2155.950195,1224.208862 2156.087402,1232.293945 2156.064697,1240.267578 
	C2155.961914,1276.213013 2155.912109,1312.159302 2156.072754,1348.104248 
	C2156.129639,1360.834595 2155.437012,1373.323975 2151.078613,1385.481445 
	C2149.535156,1389.786987 2148.841553,1394.548218 2148.615479,1399.143555 
	C2148.140625,1408.793091 2154.218750,1412.234619 2162.853516,1407.030762 
	C2170.822021,1402.228149 2178.276611,1396.580444 2186.134521,1391.582764 
	C2190.568848,1388.762329 2195.359863,1386.502441 2199.840820,1385.419434 
	C2199.100342,1393.965088 2194.457031,1398.750366 2190.317139,1404.011230 
	C2183.750977,1412.354858 2176.044678,1420.408203 2171.943604,1429.929443 
	C2166.898438,1441.642944 2162.130127,1452.958130 2152.864258,1462.059814 
	C2149.339600,1465.521851 2148.776123,1470.337158 2150.799072,1475.082764 
	C2151.840820,1477.526611 2153.020264,1479.916382 2154.234375,1482.281006 
	C2158.805908,1491.186523 2158.793457,1500.196655 2154.723633,1509.211426 
	C2152.812012,1513.446045 2150.528809,1517.511353 2148.472412,1521.682495 
	C2142.750977,1533.288330 2142.384033,1546.068726 2140.975586,1558.523193 
	C2140.577148,1562.045898 2142.493164,1566.509521 2144.739014,1569.494873 
	C2148.235840,1574.143555 2152.922363,1577.897217 2157.578125,1582.497803 
	C2172.838867,1574.524170 2183.296631,1581.804321 2193.264893,1591.763916 
	C2196.933594,1595.429321 2201.724854,1597.971680 2206.003906,1601.026367 
	C2179.698242,1621.276123 2153.513672,1641.685791 2127.038574,1661.711548 
	C2112.736572,1672.529419 2097.938721,1682.691162 2081.710938,1692.236084 
	C2077.895996,1682.613281 2072.852783,1676.203369 2065.940186,1670.358276 
	C2055.331055,1661.387451 2045.442017,1651.506470 2035.755371,1641.518921 
	C2025.174927,1630.609741 2019.508911,1617.425049 2020.025513,1601.947998 
	C2020.246826,1595.322021 2020.485962,1588.696899 2020.724609,1582.071533 
	C2020.914673,1576.793945 2021.905884,1571.399170 2021.142700,1566.264282 
	C2019.696167,1556.530762 2021.552734,1547.836060 2026.762085,1539.668701 
	C2030.842407,1533.271606 2032.335205,1526.293335 2031.523926,1518.752319 
	C2030.977905,1513.676880 2028.344849,1510.171875 2024.344604,1506.567383 
	C2025.731934,1503.552734 2026.273804,1501.218140 2027.734009,1500.197021 
	C2039.435791,1492.015991 2044.424072,1479.778809 2047.594971,1466.763672 
	C2050.723877,1453.920044 2053.560303,1440.912476 2055.078125,1427.809082 
	C2055.800781,1421.570923 2054.441895,1414.361572 2051.817139,1408.598389 
	C2042.796631,1388.794556 2040.495972,1367.932617 2040.022705,1346.630005 
	C2039.875488,1340.002930 2040.757324,1333.231079 2039.676636,1326.775146 
	C2038.053711,1317.079468 2033.898071,1307.706665 2033.079468,1298.005859 
	C2032.259155,1288.285278 2034.417847,1278.340088 2034.876221,1268.475098 
	C2035.180420,1261.928589 2035.115112,1255.326416 2034.646851,1248.790039 
	C2033.515015,1232.996216 2032.110352,1217.220581 2030.639893,1201.453979 
	C2030.463989,1199.569092 2029.572021,1197.485840 2028.379272,1196.004028 
	C2020.833862,1186.628906 2019.682373,1175.494263 2019.224609,1164.128540 
z"/>
<path fill="#64B787" opacity="1.000000" stroke="none" 
	d="
M1981.076660,1825.772461 
	C1985.491455,1824.840576 1989.190552,1826.313232 1990.697266,1830.598755 
	C1991.576172,1833.099243 1992.186768,1835.708496 1992.740356,1838.306763 
	C1997.091675,1858.730713 2010.751709,1869.534912 2030.504272,1870.868042 
	C2049.353271,1872.140259 2067.217529,1876.215698 2085.084717,1881.799927 
	C2091.150635,1883.695801 2098.394531,1883.590698 2104.743408,1882.437012 
	C2117.151367,1880.182129 2129.441895,1876.989990 2141.527588,1873.344482 
	C2151.815186,1870.241333 2162.033691,1867.971924 2172.851318,1867.843628 
	C2180.122070,1867.757568 2187.378662,1866.328491 2194.637451,1865.466064 
	C2213.259766,1863.253540 2231.614258,1863.617676 2250.212891,1867.349731 
	C2283.457764,1874.020508 2316.857422,1880.284424 2351.020996,1880.038452 
	C2354.349365,1880.014526 2357.777832,1879.734741 2360.992676,1880.391602 
	C2390.699463,1886.461670 2420.766602,1883.028198 2450.660156,1884.076172 
	C2461.269043,1884.448120 2471.976562,1884.929932 2482.407471,1886.714111 
	C2494.826904,1888.838501 2506.536377,1886.400146 2517.651855,1882.130493 
	C2537.226318,1874.611328 2556.310303,1873.667358 2576.030273,1881.264404 
	C2581.458008,1883.355347 2587.767822,1883.159424 2593.674316,1884.002930 
	C2597.606689,1884.564575 2601.597412,1884.862549 2605.457520,1885.739380 
	C2608.504150,1886.431396 2610.515381,1891.120117 2609.145020,1893.913940 
	C2607.989258,1896.269653 2606.827148,1898.842773 2604.982666,1900.601318 
	C2597.771484,1907.476562 2590.618408,1914.480591 2582.843750,1920.684814 
	C2560.526123,1938.494263 2553.232666,1965.913940 2564.399414,1992.416138 
	C2566.724365,1997.933960 2569.717773,2003.166626 2572.153076,2008.641968 
	C2577.065186,2019.687134 2580.295898,2030.786621 2578.864990,2043.416504 
	C2578.003418,2051.022217 2579.525879,2059.565918 2582.333496,2066.770020 
	C2587.074707,2078.937012 2588.322510,2091.219727 2588.036377,2103.971680 
	C2587.887451,2110.627441 2587.689453,2117.335205 2588.311523,2123.944580 
	C2589.682617,2138.521484 2594.908936,2150.914307 2608.647705,2158.501709 
	C2613.215576,2161.024658 2617.650879,2164.396484 2621.033691,2168.336182 
	C2629.192383,2177.838867 2634.541504,2188.167236 2627.687500,2201.099854 
	C2624.147705,2207.779053 2624.444580,2215.087891 2625.549316,2222.569580 
	C2626.904785,2231.750488 2628.055664,2241.103516 2627.819580,2250.344482 
	C2627.445068,2264.993164 2631.469971,2277.937256 2639.853760,2289.700439 
	C2643.714111,2295.117188 2647.670166,2300.471191 2651.743652,2305.729248 
	C2661.484619,2318.302490 2661.539795,2321.965332 2651.858887,2335.581055 
	C2650.707031,2337.200928 2649.489746,2338.779297 2648.435547,2340.460449 
	C2648.117188,2340.968262 2648.247070,2341.756836 2648.007812,2343.851562 
	C2650.267334,2344.960938 2652.879883,2347.181641 2655.667480,2347.429688 
	C2662.945312,2348.076172 2670.320312,2347.562744 2677.617432,2348.073486 
	C2684.186035,2348.533691 2690.702393,2349.739990 2698.667236,2351.445801 
	C2692.936768,2357.006348 2684.685059,2356.136719 2676.865723,2356.157959 
	C2641.596924,2356.254395 2606.326904,2355.887207 2569.469238,2353.516113 
	C2569.246826,2346.903809 2570.219727,2342.292480 2572.052734,2338.053223 
	C2577.499268,2325.456299 2576.994873,2313.947754 2568.942627,2302.191650 
	C2561.776123,2291.728271 2557.401367,2279.811523 2555.729492,2266.950195 
	C2554.968018,2261.093506 2552.816162,2255.378418 2550.957275,2249.709717 
	C2544.317627,2229.465576 2537.623535,2209.348877 2535.195801,2187.915771 
	C2533.257080,2170.798828 2530.664551,2153.617188 2521.447021,2138.208984 
	C2518.489014,2133.264404 2517.331299,2126.978027 2516.406494,2121.138184 
	C2514.534424,2109.314941 2513.226318,2097.393799 2512.002197,2085.480225 
	C2511.371826,2079.343994 2509.953125,2073.687256 2505.765869,2068.980713 
	C2500.918945,2063.531982 2499.810547,2057.170166 2501.549316,2050.300049 
	C2504.045898,2040.436646 2503.226318,2030.601685 2502.738525,2020.552490 
	C2501.482666,1994.684082 2507.340088,1971.483887 2531.198486,1956.481201 
	C2534.562500,1954.365845 2537.964355,1952.001343 2540.578857,1949.066528 
	C2546.292236,1942.653320 2551.860352,1936.039673 2556.713379,1928.975708 
	C2558.130127,1926.913818 2556.931396,1923.055298 2556.931396,1918.977539 
	C2551.929199,1919.268921 2548.007080,1919.152466 2544.208740,1919.781250 
	C2531.066650,1921.957520 2517.822510,1923.780396 2504.880371,1926.848511 
	C2470.612061,1934.972168 2435.814453,1933.070435 2401.379883,1930.904907 
	C2381.464355,1929.652222 2361.587158,1927.890991 2341.621094,1928.062012 
	C2313.503906,1928.302856 2285.888672,1924.643311 2258.452148,1918.799805 
	C2251.363037,1917.289795 2243.844971,1915.971313 2236.743408,1916.701416 
	C2219.324219,1918.492188 2202.107422,1916.383179 2184.985352,1914.625854 
	C2174.780518,1913.578247 2165.186035,1912.960815 2155.602051,1916.765991 
	C2134.071533,1925.314819 2110.901123,1923.002197 2088.634766,1926.723755 
	C2084.928223,1927.343262 2080.639648,1926.080200 2076.931396,1924.790894 
	C2066.056152,1921.009277 2054.852295,1920.512695 2043.501709,1919.717896 
	C2025.403809,1918.450806 2008.084595,1914.325562 1993.872803,1901.549194 
	C1990.652710,1898.654419 1985.628784,1897.765991 1981.435181,1895.954102 
	C1981.187500,1873.173828 1980.939941,1850.393555 1981.076660,1825.772461 
z"/>
<path fill="#57A378" opacity="1.000000" stroke="none" 
	d="
M1379.343750,2890.945801 
	C1380.952271,2881.284668 1382.526001,2871.617432 1384.180542,2861.964111 
	C1385.504028,2854.241455 1386.925781,2846.535645 1390.408203,2837.164795 
	C1399.067505,2834.801270 1406.001099,2832.386963 1412.100220,2833.738525 
	C1425.625977,2836.735596 1438.543457,2834.998779 1451.410400,2831.675293 
	C1468.573975,2827.241699 1485.462280,2827.134277 1502.396484,2832.547363 
	C1511.392822,2835.423340 1520.473267,2836.073730 1529.842041,2833.759766 
	C1534.937134,2832.500977 1540.400513,2832.814453 1545.599243,2831.873779 
	C1552.065186,2830.703857 1558.998535,2830.116211 1564.731079,2827.267334 
	C1582.279053,2818.546143 1601.006226,2814.833008 1619.760620,2813.607422 
	C1618.795166,2817.655029 1617.833130,2820.203613 1617.597412,2822.817139 
	C1616.579224,2834.114258 1620.311401,2838.764160 1631.706177,2839.602295 
	C1637.621704,2840.037598 1643.831665,2840.310303 1649.537109,2839.017578 
	C1664.632446,2835.596680 1679.861816,2835.858887 1695.107910,2836.047363 
	C1712.418213,2836.261719 1729.546875,2836.046387 1746.137573,2829.787354 
	C1752.263916,2827.475586 1759.105713,2827.105713 1765.577759,2825.655762 
	C1780.841309,2822.236816 1794.560791,2824.543701 1806.020630,2836.001465 
	C1812.278320,2842.257812 1819.815674,2846.147949 1828.459839,2848.168213 
	C1839.644531,2850.782715 1849.504395,2856.236816 1858.335693,2863.458008 
	C1865.762695,2869.531006 1871.608398,2877.033203 1871.555908,2886.990723 
	C1871.480591,2901.271484 1876.453125,2914.324219 1879.912598,2927.771973 
	C1870.713257,2944.135254 1856.517090,2956.206299 1843.659058,2969.336182 
	C1815.858765,2997.723633 1784.875488,3022.180420 1749.258789,3041.093018 
	C1748.125122,3032.030273 1752.687744,3026.620361 1757.527466,3020.850830 
	C1767.726440,3008.692383 1764.977051,2994.771240 1760.740479,2981.244873 
	C1759.851318,2978.405273 1756.910278,2975.245361 1754.146362,2974.119141 
	C1740.641479,2968.616211 1730.156982,2960.255859 1724.723755,2946.341553 
	C1724.503418,2945.777100 1723.877808,2945.290527 1723.328735,2944.946777 
	C1708.624268,2935.740967 1694.052246,2926.299072 1675.361694,2928.511475 
	C1667.457764,2929.446777 1659.480591,2929.813232 1651.526978,2930.269287 
	C1637.639771,2931.065918 1625.298706,2927.629639 1615.221680,2917.364014 
	C1604.608154,2906.551514 1590.647949,2904.978760 1576.548584,2904.341309 
	C1570.349731,2904.061035 1564.641724,2906.045166 1560.102661,2910.384033 
	C1543.573853,2926.182129 1522.489380,2935.153320 1503.837646,2946.572266 
	C1502.986816,2940.325195 1501.271240,2935.870117 1496.696655,2933.771484 
	C1482.363281,2927.196045 1468.674194,2918.697266 1451.799438,2919.881836 
	C1438.239746,2920.833252 1425.519653,2916.967773 1413.694092,2910.634033 
	C1402.064819,2904.405762 1390.779785,2897.534668 1379.343750,2890.945801 
z"/>
<path fill="#58A57B" opacity="1.000000" stroke="none" 
	d="
M1981.303589,2047.902832 
	C1981.080566,2030.471924 1980.857544,2013.041016 1982.400635,1993.968262 
	C1986.679321,1993.178711 1989.566284,1993.502197 1991.642212,1994.971558 
	C2002.555664,2002.697021 2014.782959,2004.592896 2027.745483,2004.042969 
	C2033.729126,2003.789185 2039.733276,2003.952271 2045.727173,2004.014160 
	C2067.001709,2004.234009 2088.267822,2003.205078 2109.449951,2007.246704 
	C2117.743896,2008.829224 2126.679688,2007.367676 2135.297363,2006.857666 
	C2147.888428,2006.112427 2160.453857,2004.938232 2173.034912,2004.012939 
	C2203.757812,2001.753662 2234.059570,2008.035400 2264.643066,2008.558472 
	C2274.580322,2008.728394 2284.815674,2006.986084 2294.403564,2008.808716 
	C2314.271973,2012.585449 2334.214111,2011.357910 2354.126465,2012.292480 
	C2360.715576,2012.601685 2367.355957,2013.918945 2373.761230,2015.588379 
	C2385.511719,2018.650513 2397.061035,2020.473267 2409.189697,2017.190918 
	C2413.445557,2016.039307 2418.449707,2016.791870 2422.945312,2017.601196 
	C2428.766846,2018.649414 2431.085449,2025.712524 2426.853027,2030.051025 
	C2422.254395,2034.764893 2416.791748,2038.641479 2411.665527,2042.833496 
	C2403.957764,2049.136719 2396.038086,2055.194336 2388.547607,2061.744385 
	C2383.355713,2066.284668 2380.550049,2072.331543 2380.297363,2079.360840 
	C2379.626221,2098.029053 2379.241211,2116.480713 2387.022461,2134.330811 
	C2392.880127,2147.769287 2396.125732,2161.998047 2394.141846,2177.120361 
	C2393.487793,2182.105957 2394.917725,2187.630371 2396.461670,2192.575195 
	C2398.637695,2199.542969 2401.384521,2206.410156 2404.630127,2212.951904 
	C2414.036377,2231.909668 2414.046143,2252.938477 2418.291260,2273.023682 
	C2418.816406,2275.508057 2418.224365,2278.365723 2417.623779,2280.927246 
	C2414.608887,2293.782715 2416.475342,2306.205566 2421.464844,2318.087158 
	C2426.581787,2330.271729 2427.266357,2342.509277 2424.043213,2355.146240 
	C2394.624268,2355.374512 2365.205322,2355.602783 2333.987793,2354.041016 
	C2334.577637,2340.230713 2333.247559,2328.695557 2329.510498,2316.949463 
	C2326.514404,2307.532715 2325.982666,2297.362061 2323.748535,2287.666504 
	C2317.339844,2259.850586 2318.632080,2230.759033 2309.438477,2203.361084 
	C2307.603516,2197.893066 2307.355713,2191.304199 2308.364502,2185.583252 
	C2311.114990,2169.985107 2308.757568,2155.056152 2304.026855,2140.384277 
	C2300.415283,2129.183838 2303.151367,2121.135254 2313.304688,2114.978271 
	C2319.531250,2111.202393 2325.166504,2106.421387 2330.913818,2101.896484 
	C2335.086914,2098.611084 2339.266602,2095.260010 2342.977295,2091.480225 
	C2347.902344,2086.464111 2345.744141,2079.556152 2338.835693,2077.590820 
	C2336.301270,2076.869629 2333.637939,2076.404541 2331.009033,2076.257324 
	C2326.362793,2075.996826 2321.679199,2075.765381 2317.043701,2076.050293 
	C2280.389160,2078.302246 2244.068604,2072.375488 2207.537598,2071.645020 
	C2203.582764,2071.565918 2199.662598,2070.384766 2195.699219,2069.972900 
	C2188.437012,2069.218750 2181.143311,2068.013672 2173.882812,2068.140381 
	C2155.290771,2068.463623 2136.709961,2069.425049 2118.123779,2070.104004 
	C2115.473389,2070.200928 2112.812744,2070.252441 2110.164307,2070.142822 
	C2093.574951,2069.456543 2076.964111,2069.055176 2060.406250,2067.903320 
	C2043.856079,2066.751953 2027.287109,2065.334961 2010.879517,2062.971191 
	C2005.311646,2062.169189 1999.787720,2058.730957 1995.020142,2055.389404 
	C1990.658081,2052.332275 1986.973755,2048.436523 1981.303589,2047.902832 
z"/>
<path fill="#60B484" opacity="1.000000" stroke="none" 
	d="
M1981.074951,1897.758667 
	C1985.628784,1897.765991 1990.652710,1898.654419 1993.872803,1901.549194 
	C2008.084595,1914.325562 2025.403809,1918.450806 2043.501709,1919.717896 
	C2054.852295,1920.512695 2066.056152,1921.009277 2076.931396,1924.790894 
	C2080.639648,1926.080200 2084.928223,1927.343262 2088.634766,1926.723755 
	C2110.901123,1923.002197 2134.071533,1925.314819 2155.602051,1916.765991 
	C2165.186035,1912.960815 2174.780518,1913.578247 2184.985352,1914.625854 
	C2202.107422,1916.383179 2219.324219,1918.492188 2236.743408,1916.701416 
	C2243.844971,1915.971313 2251.363037,1917.289795 2258.452148,1918.799805 
	C2285.888672,1924.643311 2313.503906,1928.302856 2341.621094,1928.062012 
	C2361.587158,1927.890991 2381.464355,1929.652222 2401.379883,1930.904907 
	C2435.814453,1933.070435 2470.612061,1934.972168 2504.880371,1926.848511 
	C2517.822510,1923.780396 2531.066650,1921.957520 2544.208740,1919.781250 
	C2548.007080,1919.152466 2551.929199,1919.268921 2556.931396,1918.977539 
	C2556.931396,1923.055298 2558.130127,1926.913818 2556.713379,1928.975708 
	C2551.860352,1936.039673 2546.292236,1942.653320 2540.578857,1949.066528 
	C2537.964355,1952.001343 2534.562500,1954.365845 2531.198486,1956.481201 
	C2507.340088,1971.483887 2501.482666,1994.684082 2502.738525,2020.552490 
	C2503.226318,2030.601685 2504.045898,2040.436646 2501.549316,2050.300049 
	C2499.810547,2057.170166 2500.918945,2063.531982 2505.765869,2068.980713 
	C2509.953125,2073.687256 2511.371826,2079.343994 2512.002197,2085.480225 
	C2513.226318,2097.393799 2514.534424,2109.314941 2516.406494,2121.138184 
	C2517.331299,2126.978027 2518.489014,2133.264404 2521.447021,2138.208984 
	C2530.664551,2153.617188 2533.257080,2170.798828 2535.195801,2187.915771 
	C2537.623535,2209.348877 2544.317627,2229.465576 2550.957275,2249.709717 
	C2552.816162,2255.378418 2554.968018,2261.093506 2555.729492,2266.950195 
	C2557.401367,2279.811523 2561.776123,2291.728271 2568.942627,2302.191650 
	C2576.994873,2313.947754 2577.499268,2325.456299 2572.052734,2338.053223 
	C2570.219727,2342.292480 2569.246826,2346.903809 2567.615723,2353.063965 
	C2539.468262,2355.078857 2511.586426,2355.374512 2482.049805,2353.960449 
	C2482.301025,2348.063232 2484.282471,2343.907471 2486.087158,2339.676514 
	C2487.369385,2336.670898 2489.499756,2333.521973 2489.382812,2330.509521 
	C2488.766113,2314.576904 2488.495605,2298.538818 2486.331787,2282.780762 
	C2483.167725,2259.738037 2478.758057,2236.851807 2474.358643,2213.999023 
	C2472.191650,2202.742676 2470.818359,2191.480957 2473.256592,2180.326416 
	C2475.298828,2170.985107 2472.586182,2163.978271 2467.436279,2156.267334 
	C2458.630615,2143.082764 2449.269043,2130.016113 2446.356201,2113.666748 
	C2443.911865,2099.945312 2439.841309,2086.507080 2437.541992,2072.767578 
	C2433.043701,2045.886841 2438.986816,2022.602173 2462.650146,2006.091187 
	C2468.647461,2001.906738 2474.418945,1997.379395 2480.107422,1992.778931 
	C2483.817383,1989.778809 2486.979980,1986.134644 2485.317139,1980.823486 
	C2483.710205,1975.690796 2479.133789,1973.793701 2474.505615,1973.181030 
	C2467.938232,1972.311523 2461.253662,1972.247803 2454.613037,1972.028687 
	C2443.976074,1971.677734 2433.098145,1972.788086 2422.749268,1970.916870 
	C2406.849365,1968.042236 2390.980713,1968.034302 2375.021973,1968.010132 
	C2353.055176,1967.976807 2331.086182,1967.799316 2309.122314,1968.049438 
	C2271.198975,1968.481323 2233.568359,1961.688477 2195.581055,1963.615112 
	C2191.675293,1963.813232 2187.673584,1962.654419 2183.752686,1961.929443 
	C2169.190674,1959.237183 2154.723633,1959.757812 2140.071289,1961.793945 
	C2129.610840,1963.247559 2118.841064,1963.934326 2108.323486,1963.238770 
	C2078.520264,1961.267700 2048.785889,1958.276978 2019.000854,1955.994873 
	C2011.459229,1955.417114 2004.519043,1954.058228 1998.865356,1948.692749 
	C1993.933105,1944.011841 1988.502930,1940.323975 1981.416504,1939.936157 
	C1981.182495,1926.478516 1980.948608,1913.020874 1981.074951,1897.758667 
z"/>
<path fill="#297E57" opacity="1.000000" stroke="none" 
	d="
M1390.501465,1436.981689 
	C1394.855957,1448.167725 1398.947510,1460.829956 1402.324341,1473.680176 
	C1406.574341,1489.852661 1412.706543,1505.199951 1419.756104,1520.352905 
	C1445.628784,1575.965698 1488.423462,1612.529663 1545.424927,1633.370483 
	C1553.544922,1636.339355 1561.847290,1638.810059 1570.901855,1643.842285 
	C1566.428101,1664.626343 1565.453491,1682.632812 1576.511841,1699.700195 
	C1578.247803,1702.379517 1579.234253,1705.817505 1579.659424,1709.025024 
	C1581.332886,1721.648804 1588.313110,1730.673218 1597.536255,1738.944092 
	C1602.795166,1743.660278 1607.916138,1749.698364 1610.335693,1756.173950 
	C1615.643921,1770.380371 1620.781982,1785.004639 1623.027100,1799.904785 
	C1625.406494,1815.695679 1632.265747,1828.637207 1640.859741,1841.338501 
	C1644.894409,1847.301392 1648.288208,1853.697510 1651.972412,1859.897339 
	C1593.538818,1860.087402 1538.596313,1846.658203 1488.842773,1815.632446 
	C1443.372314,1787.277344 1415.587769,1745.084839 1399.608765,1694.710815 
	C1392.740479,1673.058838 1389.550537,1650.787476 1389.862549,1627.915405 
	C1390.379639,1590.024292 1390.211792,1552.123169 1390.218018,1514.226196 
	C1390.222168,1488.997925 1390.027222,1463.769653 1390.501465,1436.981689 
z"/>
<path fill="#509C71" opacity="1.000000" stroke="none" 
	d="
M2023.924805,1507.855957 
	C2028.344849,1510.171875 2030.977905,1513.676880 2031.523926,1518.752319 
	C2032.335205,1526.293335 2030.842407,1533.271606 2026.762085,1539.668701 
	C2021.552734,1547.836060 2019.696167,1556.530762 2021.142700,1566.264282 
	C2021.905884,1571.399170 2020.914673,1576.793945 2020.724609,1582.071533 
	C2020.485962,1588.696899 2020.246826,1595.322021 2020.025513,1601.947998 
	C2019.508911,1617.425049 2025.174927,1630.609741 2035.755371,1641.518921 
	C2045.442017,1651.506470 2055.331055,1661.387451 2065.940186,1670.358276 
	C2072.852783,1676.203369 2077.895996,1682.613281 2080.425781,1692.860107 
	C2062.396729,1707.388794 2043.986572,1720.362915 2025.606812,1733.379517 
	C2015.871948,1740.274048 2006.189697,1747.242920 1996.072021,1755.546021 
	C1991.049072,1759.014160 1986.437866,1761.114624 1980.647095,1763.730103 
	C1968.925293,1769.532837 1958.383057,1774.820679 1944.902100,1779.912354 
	C1933.615112,1776.872681 1925.308228,1777.479004 1916.573486,1778.329956 
	C1904.180542,1779.537598 1891.470947,1779.515869 1879.084473,1778.221680 
	C1865.887695,1776.843140 1855.889526,1769.906616 1850.353149,1756.846436 
	C1842.095337,1737.366089 1832.978027,1718.251221 1824.310669,1698.942993 
	C1817.278564,1683.277466 1810.111450,1667.664185 1803.499146,1651.821167 
	C1799.182861,1641.479248 1795.751587,1630.768066 1791.923828,1620.222290 
	C1824.832642,1606.770142 1858.169189,1594.289429 1892.144287,1576.309326 
	C1931.994019,1558.052246 1967.515503,1537.682373 2001.958008,1515.467407 
	C2008.916382,1510.979248 2015.672607,1507.735718 2023.924805,1507.855957 
z"/>
<path fill="#42956A" opacity="1.000000" stroke="none" 
	d="
M1839.815186,2531.921631 
	C1843.811523,2528.195068 1847.807983,2524.468506 1854.223022,2520.863037 
	C1860.570801,2524.529785 1864.369141,2528.235840 1868.463623,2531.578857 
	C1873.076050,2535.344971 1877.572754,2539.519043 1882.787109,2542.233887 
	C1902.249756,2552.367432 1921.812134,2562.346680 1941.678955,2571.654053 
	C1955.458862,2578.110352 1967.166870,2586.002930 1971.968384,2601.391113 
	C1973.921509,2607.650635 1978.550415,2611.212891 1984.880859,2612.635742 
	C1985.123657,2619.564697 1985.366333,2626.493896 1984.918213,2636.385498 
	C1984.265869,2643.714111 1984.304199,2648.080078 1984.342529,2652.446045 
	C1983.673218,2692.508301 1977.701660,2731.730225 1965.372925,2769.892578 
	C1961.501465,2781.876221 1957.033447,2793.667480 1950.794678,2806.375977 
	C1940.544189,2804.311523 1936.499756,2797.196533 1932.423096,2790.426270 
	C1919.493530,2768.955078 1900.308472,2755.410156 1877.444824,2746.583984 
	C1869.934570,2743.684814 1863.028564,2740.220947 1856.647095,2735.177246 
	C1852.665894,2732.030762 1847.410645,2729.131104 1842.522705,2728.750977 
	C1827.345093,2727.570557 1811.886841,2726.092041 1797.073242,2731.122803 
	C1769.172974,2740.598389 1740.049194,2743.395996 1711.150391,2747.375977 
	C1700.566284,2748.833740 1689.907227,2748.451904 1680.235596,2742.694580 
	C1688.536621,2730.863281 1696.623779,2720.491211 1704.259399,2709.796631 
	C1712.270386,2698.576172 1723.162964,2689.426270 1729.508057,2675.458984 
	C1733.273071,2671.735352 1736.193970,2668.969482 1738.618042,2665.821289 
	C1765.847900,2630.455078 1793.068237,2595.080811 1820.128540,2559.584961 
	C1826.986450,2550.589355 1833.268555,2541.154785 1839.815186,2531.921631 
z"/>
<path fill="#64B787" opacity="1.000000" stroke="none" 
	d="
M1838.351318,2532.083496 
	C1833.268555,2541.154785 1826.986450,2550.589355 1820.128540,2559.584961 
	C1793.068237,2595.080811 1765.847900,2630.455078 1738.618042,2665.821289 
	C1736.193970,2668.969482 1733.273071,2671.735352 1727.935425,2675.727051 
	C1707.794800,2680.584961 1690.235840,2684.118896 1672.827393,2688.281494 
	C1655.465698,2692.432861 1637.648682,2695.777588 1624.807129,2710.161621 
	C1622.681519,2712.542480 1619.549683,2714.371582 1616.529541,2715.552002 
	C1596.269653,2723.471191 1576.452637,2733.425049 1555.467529,2738.383545 
	C1521.073730,2746.510742 1485.868408,2746.857910 1450.831421,2740.240967 
	C1443.731079,2738.899902 1436.407593,2738.025635 1429.201782,2738.116211 
	C1416.637207,2738.273682 1404.084106,2739.348145 1391.526123,2740.038574 
	C1391.191895,2719.036133 1390.751465,2698.034912 1390.558960,2677.031250 
	C1390.420410,2661.920654 1390.612549,2646.806885 1391.097900,2629.867676 
	C1409.913818,2626.110352 1428.108887,2624.110840 1446.782349,2626.934570 
	C1467.252686,2630.030029 1487.803101,2628.367432 1507.818970,2621.999023 
	C1518.560303,2618.581543 1529.481079,2615.634277 1540.464355,2613.095947 
	C1552.093994,2610.408447 1563.699829,2608.805420 1575.901611,2611.175781 
	C1587.722656,2613.472412 1599.651245,2612.058594 1610.934326,2606.798584 
	C1621.929321,2601.672607 1633.662720,2600.260498 1645.786499,2599.749512 
	C1660.324585,2599.136719 1674.796875,2596.970459 1689.298218,2595.482666 
	C1695.013062,2594.896240 1699.497314,2592.081055 1702.093994,2587.104736 
	C1711.949829,2568.217041 1730.113647,2563.121826 1748.666138,2560.812256 
	C1766.646240,2558.573730 1783.260742,2551.853027 1800.717407,2548.073975 
	C1806.993896,2546.715088 1812.578003,2542.337646 1818.616699,2539.648682 
	C1824.616211,2536.977295 1830.790039,2534.697266 1838.351318,2532.083496 
z"/>
<path fill="#5EAD81" opacity="1.000000" stroke="none" 
	d="
M1981.049561,1941.760986 
	C1988.502930,1940.323975 1993.933105,1944.011841 1998.865356,1948.692749 
	C2004.519043,1954.058228 2011.459229,1955.417114 2019.000854,1955.994873 
	C2048.785889,1958.276978 2078.520264,1961.267700 2108.323486,1963.238770 
	C2118.841064,1963.934326 2129.610840,1963.247559 2140.071289,1961.793945 
	C2154.723633,1959.757812 2169.190674,1959.237183 2183.752686,1961.929443 
	C2187.673584,1962.654419 2191.675293,1963.813232 2195.581055,1963.615112 
	C2233.568359,1961.688477 2271.198975,1968.481323 2309.122314,1968.049438 
	C2331.086182,1967.799316 2353.055176,1967.976807 2375.021973,1968.010132 
	C2390.980713,1968.034302 2406.849365,1968.042236 2422.749268,1970.916870 
	C2433.098145,1972.788086 2443.976074,1971.677734 2454.613037,1972.028687 
	C2461.253662,1972.247803 2467.938232,1972.311523 2474.505615,1973.181030 
	C2479.133789,1973.793701 2483.710205,1975.690796 2485.317139,1980.823486 
	C2486.979980,1986.134644 2483.817383,1989.778809 2480.107422,1992.778931 
	C2474.418945,1997.379395 2468.647461,2001.906738 2462.650146,2006.091187 
	C2438.986816,2022.602173 2433.043701,2045.886841 2437.541992,2072.767578 
	C2439.841309,2086.507080 2443.911865,2099.945312 2446.356201,2113.666748 
	C2449.269043,2130.016113 2458.630615,2143.082764 2467.436279,2156.267334 
	C2472.586182,2163.978271 2475.298828,2170.985107 2473.256592,2180.326416 
	C2470.818359,2191.480957 2472.191650,2202.742676 2474.358643,2213.999023 
	C2478.758057,2236.851807 2483.167725,2259.738037 2486.331787,2282.780762 
	C2488.495605,2298.538818 2488.766113,2314.576904 2489.382812,2330.509521 
	C2489.499756,2333.521973 2487.369385,2336.670898 2486.087158,2339.676514 
	C2484.282471,2343.907471 2482.301025,2348.063232 2480.209961,2353.619873 
	C2462.586426,2355.253662 2445.147705,2355.518555 2425.875977,2355.464844 
	C2427.266357,2342.509277 2426.581787,2330.271729 2421.464844,2318.087158 
	C2416.475342,2306.205566 2414.608887,2293.782715 2417.623779,2280.927246 
	C2418.224365,2278.365723 2418.816406,2275.508057 2418.291260,2273.023682 
	C2414.046143,2252.938477 2414.036377,2231.909668 2404.630127,2212.951904 
	C2401.384521,2206.410156 2398.637695,2199.542969 2396.461670,2192.575195 
	C2394.917725,2187.630371 2393.487793,2182.105957 2394.141846,2177.120361 
	C2396.125732,2161.998047 2392.880127,2147.769287 2387.022461,2134.330811 
	C2379.241211,2116.480713 2379.626221,2098.029053 2380.297363,2079.360840 
	C2380.550049,2072.331543 2383.355713,2066.284668 2388.547607,2061.744385 
	C2396.038086,2055.194336 2403.957764,2049.136719 2411.665527,2042.833496 
	C2416.791748,2038.641479 2422.254395,2034.764893 2426.853027,2030.051025 
	C2431.085449,2025.712524 2428.766846,2018.649414 2422.945312,2017.601196 
	C2418.449707,2016.791870 2413.445557,2016.039307 2409.189697,2017.190918 
	C2397.061035,2020.473267 2385.511719,2018.650513 2373.761230,2015.588379 
	C2367.355957,2013.918945 2360.715576,2012.601685 2354.126465,2012.292480 
	C2334.214111,2011.357910 2314.271973,2012.585449 2294.403564,2008.808716 
	C2284.815674,2006.986084 2274.580322,2008.728394 2264.643066,2008.558472 
	C2234.059570,2008.035400 2203.757812,2001.753662 2173.034912,2004.012939 
	C2160.453857,2004.938232 2147.888428,2006.112427 2135.297363,2006.857666 
	C2126.679688,2007.367676 2117.743896,2008.829224 2109.449951,2007.246704 
	C2088.267822,2003.205078 2067.001709,2004.234009 2045.727173,2004.014160 
	C2039.733276,2003.952271 2033.729126,2003.789185 2027.745483,2004.042969 
	C2014.782959,2004.592896 2002.555664,2002.697021 1991.642212,1994.971558 
	C1989.566284,1993.502197 1986.679321,1993.178711 1982.759277,1992.137451 
	C1981.128784,1975.827515 1980.905762,1959.706787 1981.049561,1941.760986 
z"/>
<path fill="#64B787" opacity="1.000000" stroke="none" 
	d="
M2583.820557,1187.262085 
	C2582.741211,1194.495972 2578.122314,1199.210938 2572.105469,1202.423218 
	C2560.444824,1208.649048 2548.763184,1214.905029 2536.715820,1220.314575 
	C2526.370605,1224.959961 2516.186279,1229.469971 2508.179443,1237.880615 
	C2500.472168,1245.976807 2495.394775,1254.659180 2498.522217,1266.457642 
	C2500.861816,1275.284302 2498.680420,1282.861694 2493.274902,1290.649414 
	C2485.099121,1302.428467 2486.824951,1312.619629 2496.994873,1322.651978 
	C2500.246582,1325.859619 2504.224609,1328.379272 2508.051270,1330.944092 
	C2514.051514,1334.965820 2520.416748,1338.469849 2526.226074,1342.739380 
	C2530.829102,1346.122192 2535.555908,1347.458374 2541.095947,1346.519165 
	C2549.586426,1345.079590 2558.157471,1344.034668 2566.572998,1342.250488 
	C2582.349854,1338.905640 2598.291992,1339.400879 2614.105469,1340.619995 
	C2626.031738,1341.539429 2638.135986,1343.926147 2643.649414,1358.843506 
	C2640.397949,1361.689087 2636.859863,1363.834106 2633.058594,1364.521729 
	C2577.673584,1374.540405 2526.699219,1396.340576 2476.893066,1421.712158 
	C2436.025879,1442.530029 2397.642578,1467.411865 2356.793213,1490.580566 
	C2351.193848,1481.535767 2345.461914,1475.348511 2337.987549,1470.550781 
	C2320.683594,1459.443604 2313.025879,1443.782349 2316.072266,1423.182617 
	C2316.555908,1419.911621 2316.185547,1416.447632 2317.066162,1413.313599 
	C2320.801758,1400.020630 2319.777588,1387.139526 2314.928223,1374.314941 
	C2312.294922,1367.350220 2311.354980,1359.995605 2314.250732,1352.904419 
	C2322.330811,1333.119629 2331.590332,1314.082520 2349.972168,1301.401978 
	C2361.086426,1293.734863 2368.994141,1283.229370 2375.989258,1270.983398 
	C2376.044189,1270.084839 2376.062012,1268.282471 2377.341797,1267.889160 
	C2384.306641,1264.971436 2389.992188,1262.447021 2396.428223,1259.390747 
	C2398.142578,1258.103516 2399.040039,1257.276001 2401.246094,1255.939209 
	C2415.176025,1249.609497 2427.710449,1243.672729 2440.289307,1237.832886 
	C2480.508057,1219.161377 2521.999268,1203.844604 2564.464355,1191.167114 
	C2570.745361,1189.292114 2577.360107,1188.536011 2583.820557,1187.262085 
z"/>
<path fill="#5EAD81" opacity="1.000000" stroke="none" 
	d="
M2024.344604,1506.567383 
	C2015.672607,1507.735718 2008.916382,1510.979248 2001.958008,1515.467407 
	C1967.515503,1537.682373 1931.994019,1558.052246 1893.385010,1575.666992 
	C1892.217651,1566.481934 1897.465332,1560.026611 1904.533325,1554.376587 
	C1911.783813,1548.580566 1918.727295,1542.391602 1925.671875,1536.224487 
	C1932.487793,1530.171387 1935.681030,1522.594849 1936.026978,1513.339355 
	C1936.398071,1503.414307 1937.833496,1493.528931 1938.806396,1483.626343 
	C1938.936279,1482.303833 1939.420776,1480.910889 1939.162476,1479.671143 
	C1934.826416,1458.852539 1938.661987,1437.018799 1931.497070,1416.594971 
	C1928.040283,1406.741577 1928.164673,1397.086304 1931.202148,1387.244507 
	C1932.769775,1382.164673 1933.977295,1376.974609 1935.414673,1371.853271 
	C1941.852417,1348.915771 1942.232544,1326.321899 1934.462769,1303.326294 
	C1928.944458,1286.994507 1925.357666,1269.971313 1921.562134,1253.109497 
	C1918.910645,1241.329712 1919.160522,1229.257568 1921.776001,1217.446533 
	C1923.621826,1209.111084 1923.432373,1201.350098 1916.921753,1195.244629 
	C1908.200073,1187.066162 1908.751831,1177.738403 1912.870605,1166.105591 
	C1921.827148,1164.198975 1930.338501,1163.714600 1938.852539,1163.661499 
	C1964.477173,1163.501831 1990.102905,1163.510132 2017.476318,1163.790771 
	C2019.682373,1175.494263 2020.833862,1186.628906 2028.379272,1196.004028 
	C2029.572021,1197.485840 2030.463989,1199.569092 2030.639893,1201.453979 
	C2032.110352,1217.220581 2033.515015,1232.996216 2034.646851,1248.790039 
	C2035.115112,1255.326416 2035.180420,1261.928589 2034.876221,1268.475098 
	C2034.417847,1278.340088 2032.259155,1288.285278 2033.079468,1298.005859 
	C2033.898071,1307.706665 2038.053711,1317.079468 2039.676636,1326.775146 
	C2040.757324,1333.231079 2039.875488,1340.002930 2040.022705,1346.630005 
	C2040.495972,1367.932617 2042.796631,1388.794556 2051.817139,1408.598389 
	C2054.441895,1414.361572 2055.800781,1421.570923 2055.078125,1427.809082 
	C2053.560303,1440.912476 2050.723877,1453.920044 2047.594971,1466.763672 
	C2044.424072,1479.778809 2039.435791,1492.015991 2027.734009,1500.197021 
	C2026.273804,1501.218140 2025.731934,1503.552734 2024.344604,1506.567383 
z"/>
<path fill="#509C71" opacity="1.000000" stroke="none" 
	d="
M1980.945312,2049.742676 
	C1986.973755,2048.436523 1990.658081,2052.332275 1995.020142,2055.389404 
	C1999.787720,2058.730957 2005.311646,2062.169189 2010.879517,2062.971191 
	C2027.287109,2065.334961 2043.856079,2066.751953 2060.406250,2067.903320 
	C2076.964111,2069.055176 2093.574951,2069.456543 2110.164307,2070.142822 
	C2112.812744,2070.252441 2115.473389,2070.200928 2118.123779,2070.104004 
	C2136.709961,2069.425049 2155.290771,2068.463623 2173.882812,2068.140381 
	C2181.143311,2068.013672 2188.437012,2069.218750 2195.699219,2069.972900 
	C2199.662598,2070.384766 2203.582764,2071.565918 2207.537598,2071.645020 
	C2244.068604,2072.375488 2280.389160,2078.302246 2317.043701,2076.050293 
	C2321.679199,2075.765381 2326.362793,2075.996826 2331.009033,2076.257324 
	C2333.637939,2076.404541 2336.301270,2076.869629 2338.835693,2077.590820 
	C2345.744141,2079.556152 2347.902344,2086.464111 2342.977295,2091.480225 
	C2339.266602,2095.260010 2335.086914,2098.611084 2330.913818,2101.896484 
	C2325.166504,2106.421387 2319.531250,2111.202393 2313.304688,2114.978271 
	C2303.151367,2121.135254 2300.415283,2129.183838 2304.026855,2140.384277 
	C2308.757568,2155.056152 2311.114990,2169.985107 2308.364502,2185.583252 
	C2307.355713,2191.304199 2307.603516,2197.893066 2309.438477,2203.361084 
	C2318.632080,2230.759033 2317.339844,2259.850586 2323.748535,2287.666504 
	C2325.982666,2297.362061 2326.514404,2307.532715 2329.510498,2316.949463 
	C2333.247559,2328.695557 2334.577637,2340.230713 2332.138672,2353.750488 
	C2305.317383,2355.436523 2278.546631,2355.622559 2249.918701,2353.897461 
	C2247.002197,2344.799805 2247.583008,2336.822754 2244.572754,2330.576904 
	C2235.966553,2312.720703 2233.990234,2293.648193 2231.819336,2274.524902 
	C2230.926758,2266.661621 2230.013672,2258.655273 2230.525391,2250.806152 
	C2231.993896,2228.291748 2234.516602,2205.844971 2235.935059,2183.328369 
	C2236.526611,2173.938965 2239.607910,2166.820312 2247.483887,2161.495850 
	C2253.530273,2157.407959 2259.387939,2152.927490 2264.742432,2147.985596 
	C2266.871094,2146.020996 2268.547119,2142.295410 2268.429932,2139.453857 
	C2268.235840,2134.752686 2263.795410,2133.583496 2259.794189,2132.718750 
	C2259.146240,2132.578369 2258.482422,2132.422607 2257.825684,2132.421387 
	C2231.921143,2132.380127 2205.979492,2130.243164 2180.143311,2133.950195 
	C2158.952881,2136.990479 2137.739502,2137.612305 2116.670166,2133.176025 
	C2099.684814,2129.599609 2082.629639,2128.039551 2065.235596,2127.669678 
	C2048.702393,2127.318115 2032.143555,2124.968506 2015.758911,2122.441406 
	C2009.428711,2121.465088 2003.531982,2117.617676 1997.465088,2115.014648 
	C1992.058105,2112.694336 1986.688965,2110.286377 1981.302979,2107.917236 
	C1981.064331,2089.138916 1980.825684,2070.360840 1980.945312,2049.742676 
z"/>
<path fill="#5EAD81" opacity="1.000000" stroke="none" 
	d="
M2375.934570,1271.882080 
	C2368.994141,1283.229370 2361.086426,1293.734863 2349.972168,1301.401978 
	C2331.590332,1314.082520 2322.330811,1333.119629 2314.250732,1352.904419 
	C2311.354980,1359.995605 2312.294922,1367.350220 2314.928223,1374.314941 
	C2319.777588,1387.139526 2320.801758,1400.020630 2317.066162,1413.313599 
	C2316.185547,1416.447632 2316.555908,1419.911621 2316.072266,1423.182617 
	C2313.025879,1443.782349 2320.683594,1459.443604 2337.987549,1470.550781 
	C2345.461914,1475.348511 2351.193848,1481.535767 2355.426270,1490.869629 
	C2353.093750,1494.712769 2350.447510,1497.775757 2347.185547,1499.889038 
	C2303.139404,1528.422729 2261.286621,1559.970947 2219.868652,1592.126831 
	C2216.204590,1594.971436 2212.275635,1597.474976 2207.236816,1600.581787 
	C2201.724854,1597.971680 2196.933594,1595.429321 2193.264893,1591.763916 
	C2183.296631,1581.804321 2172.838867,1574.524170 2157.578125,1582.497803 
	C2152.922363,1577.897217 2148.235840,1574.143555 2144.739014,1569.494873 
	C2142.493164,1566.509521 2140.577148,1562.045898 2140.975586,1558.523193 
	C2142.384033,1546.068726 2142.750977,1533.288330 2148.472412,1521.682495 
	C2150.528809,1517.511353 2152.812012,1513.446045 2154.723633,1509.211426 
	C2158.793457,1500.196655 2158.805908,1491.186523 2154.234375,1482.281006 
	C2153.020264,1479.916382 2151.840820,1477.526611 2150.799072,1475.082764 
	C2148.776123,1470.337158 2149.339600,1465.521851 2152.864258,1462.059814 
	C2162.130127,1452.958130 2166.898438,1441.642944 2171.943604,1429.929443 
	C2176.044678,1420.408203 2183.750977,1412.354858 2190.317139,1404.011230 
	C2194.457031,1398.750366 2199.100342,1393.965088 2200.666748,1384.363037 
	C2220.394043,1368.842285 2239.224854,1355.918213 2257.854736,1342.711304 
	C2264.202148,1338.211670 2270.045410,1333.000732 2277.347656,1327.487061 
	C2294.349121,1317.499878 2310.050537,1308.017090 2325.915039,1298.814819 
	C2342.299561,1289.311279 2357.769287,1278.084961 2375.934570,1271.882080 
z"/>
<path fill="#5EAD81" opacity="1.000000" stroke="none" 
	d="
M1504.009766,2948.019531 
	C1522.489380,2935.153320 1543.573853,2926.182129 1560.102661,2910.384033 
	C1564.641724,2906.045166 1570.349731,2904.061035 1576.548584,2904.341309 
	C1590.647949,2904.978760 1604.608154,2906.551514 1615.221680,2917.364014 
	C1625.298706,2927.629639 1637.639771,2931.065918 1651.526978,2930.269287 
	C1659.480591,2929.813232 1667.457764,2929.446777 1675.361694,2928.511475 
	C1694.052246,2926.299072 1708.624268,2935.740967 1723.328735,2944.946777 
	C1723.877808,2945.290527 1724.503418,2945.777100 1724.723755,2946.341553 
	C1730.156982,2960.255859 1740.641479,2968.616211 1754.146362,2974.119141 
	C1756.910278,2975.245361 1759.851318,2978.405273 1760.740479,2981.244873 
	C1764.977051,2994.771240 1767.726440,3008.692383 1757.527466,3020.850830 
	C1752.687744,3026.620361 1748.125122,3032.030273 1747.949097,3041.387207 
	C1721.428101,3059.404541 1693.457031,3073.136963 1664.067871,3083.366455 
	C1633.473022,3094.016357 1602.182617,3102.667480 1569.968628,3110.842773 
	C1572.642334,3098.985107 1581.324951,3092.638916 1589.436035,3085.822998 
	C1592.986938,3082.838867 1596.893555,3080.265625 1600.340820,3077.174072 
	C1605.740845,3072.331543 1607.484619,3066.388672 1605.564697,3059.163330 
	C1601.177002,3042.650635 1592.593262,3030.194336 1575.062012,3025.687744 
	C1559.001221,3021.559082 1543.134521,3016.495850 1526.897095,3013.288818 
	C1513.290771,3010.601562 1499.293701,3009.742676 1485.425415,3008.619629 
	C1480.903564,3008.253662 1476.127197,3009.146484 1471.669312,3010.267090 
	C1462.018555,3012.693604 1452.532959,3015.770264 1442.913330,3018.331543 
	C1435.244141,3020.373291 1427.476440,3022.045166 1420.288086,3022.668945 
	C1428.558838,3014.320312 1436.293823,3007.183594 1445.258301,2999.479492 
	C1453.714844,2993.260986 1461.293091,2987.999512 1468.092041,2981.873291 
	C1480.311279,2970.862305 1492.062866,2959.332520 1504.009766,2948.019531 
z"/>
<path fill="#297E57" opacity="1.000000" stroke="none" 
	d="
M1985.447144,2610.791016 
	C1978.550415,2611.212891 1973.921509,2607.650635 1971.968384,2601.391113 
	C1967.166870,2586.002930 1955.458862,2578.110352 1941.678955,2571.654053 
	C1921.812134,2562.346680 1902.249756,2552.367432 1882.787109,2542.233887 
	C1877.572754,2539.519043 1873.076050,2535.344971 1868.463623,2531.578857 
	C1864.369141,2528.235840 1860.570801,2524.529785 1855.268311,2520.351074 
	C1862.201660,2507.819580 1869.958496,2495.487549 1878.921753,2484.105957 
	C1902.610840,2454.024414 1926.896484,2424.413330 1950.778320,2394.482422 
	C1957.360107,2386.233398 1963.531372,2377.638916 1969.555176,2368.969727 
	C1972.919434,2364.127686 1976.276733,2359.047363 1975.371948,2351.208496 
	C1981.037964,2344.732666 1980.229614,2337.844482 1980.255859,2331.276611 
	C1980.359375,2305.377686 1980.331909,2279.478271 1980.387939,2253.579102 
	C1980.403809,2246.276367 1980.538818,2238.973389 1982.389160,2229.992920 
	C1988.565674,2229.722168 1992.948486,2231.208496 1997.382568,2232.521973 
	C2015.257690,2237.817871 2032.880737,2240.534912 2052.068604,2237.799316 
	C2072.216797,2234.926758 2093.024170,2236.597656 2113.544189,2236.508545 
	C2116.056641,2236.497559 2118.647217,2237.698242 2121.072510,2238.661865 
	C2124.026611,2239.835205 2125.664062,2244.512695 2124.108643,2247.079102 
	C2123.088867,2248.761719 2121.938477,2250.429688 2120.560059,2251.820312 
	C2103.929688,2268.599854 2103.985596,2289.920410 2104.651367,2311.252930 
	C2104.768311,2315.004639 2106.465332,2319.147705 2108.607422,2322.315674 
	C2115.993408,2333.238770 2123.899902,2343.810303 2131.607910,2354.515625 
	C2112.397217,2354.478271 2093.186279,2354.519287 2073.976318,2354.383789 
	C2050.752441,2354.219727 2027.529785,2353.891602 2004.306274,2353.684326 
	C2002.327026,2353.666748 2000.318604,2353.882324 1998.368042,2354.234619 
	C1991.005615,2355.566162 1987.840210,2358.625488 1987.183716,2365.990479 
	C1986.654663,2371.925537 1986.747192,2377.925537 1986.745117,2383.896729 
	C1986.722168,2451.620605 1986.756104,2519.344482 1986.704956,2587.068359 
	C1986.699463,2594.361084 1986.254517,2601.653564 1985.447144,2610.791016 
z"/>
<path fill="#509C71" opacity="1.000000" stroke="none" 
	d="
M1679.823242,2744.012207 
	C1689.907227,2748.451904 1700.566284,2748.833740 1711.150391,2747.375977 
	C1740.049194,2743.395996 1769.172974,2740.598389 1797.073242,2731.122803 
	C1811.886841,2726.092041 1827.345093,2727.570557 1842.522705,2728.750977 
	C1847.410645,2729.131104 1852.665894,2732.030762 1856.647095,2735.177246 
	C1863.028564,2740.220947 1869.934570,2743.684814 1877.444824,2746.583984 
	C1900.308472,2755.410156 1919.493530,2768.955078 1932.423096,2790.426270 
	C1936.499756,2797.196533 1940.544189,2804.311523 1950.014160,2807.611816 
	C1946.000000,2820.198975 1941.678101,2832.911377 1935.255981,2844.455322 
	C1919.416504,2872.927734 1904.531006,2902.111572 1881.055908,2927.093506 
	C1876.453125,2914.324219 1871.480591,2901.271484 1871.555908,2886.990723 
	C1871.608398,2877.033203 1865.762695,2869.531006 1858.335693,2863.458008 
	C1849.504395,2856.236816 1839.644531,2850.782715 1828.459839,2848.168213 
	C1819.815674,2846.147949 1812.278320,2842.257812 1806.020630,2836.001465 
	C1794.560791,2824.543701 1780.841309,2822.236816 1765.577759,2825.655762 
	C1759.105713,2827.105713 1752.263916,2827.475586 1746.137573,2829.787354 
	C1729.546875,2836.046387 1712.418213,2836.261719 1695.107910,2836.047363 
	C1679.861816,2835.858887 1664.632446,2835.596680 1649.537109,2839.017578 
	C1643.831665,2840.310303 1637.621704,2840.037598 1631.706177,2839.602295 
	C1620.311401,2838.764160 1616.579224,2834.114258 1617.597412,2822.817139 
	C1617.833130,2820.203613 1618.795166,2817.655029 1620.854736,2812.834961 
	C1626.007935,2806.929443 1630.135132,2803.590332 1633.375488,2799.541504 
	C1643.599243,2786.767334 1653.280273,2773.556396 1663.602417,2760.865234 
	C1668.505127,2754.837402 1674.385620,2749.604980 1679.823242,2744.012207 
z"/>
<path fill="#60B484" opacity="1.000000" stroke="none" 
	d="
M1419.752441,3023.881104 
	C1427.476440,3022.045166 1435.244141,3020.373291 1442.913330,3018.331543 
	C1452.532959,3015.770264 1462.018555,3012.693604 1471.669312,3010.267090 
	C1476.127197,3009.146484 1480.903564,3008.253662 1485.425415,3008.619629 
	C1499.293701,3009.742676 1513.290771,3010.601562 1526.897095,3013.288818 
	C1543.134521,3016.495850 1559.001221,3021.559082 1575.062012,3025.687744 
	C1592.593262,3030.194336 1601.177002,3042.650635 1605.564697,3059.163330 
	C1607.484619,3066.388672 1605.740845,3072.331543 1600.340820,3077.174072 
	C1596.893555,3080.265625 1592.986938,3082.838867 1589.436035,3085.822998 
	C1581.324951,3092.638916 1572.642334,3098.985107 1568.388184,3110.820801 
	C1564.881104,3113.507324 1561.726929,3114.865479 1556.542725,3115.651855 
	C1550.923584,3113.658936 1549.241089,3115.737793 1548.000732,3118.627930 
	C1531.037842,3124.099609 1514.119995,3129.715820 1497.103638,3135.015625 
	C1449.840942,3149.736328 1402.537231,3164.325195 1353.339600,3177.242188 
	C1344.420044,3160.189453 1354.553711,3146.495850 1356.736328,3132.427246 
	C1349.555786,3126.358154 1342.013184,3128.086182 1335.041748,3128.109619 
	C1315.935303,3128.173340 1296.870850,3128.310059 1279.267944,3122.010742 
	C1285.654419,3117.314209 1291.068115,3113.626953 1296.426514,3109.861328 
	C1316.279053,3095.908936 1336.113281,3081.930420 1357.167358,3067.361328 
	C1370.586792,3057.803955 1382.673584,3048.677246 1395.042969,3039.951172 
	C1403.065796,3034.291504 1411.501587,3029.217529 1419.752441,3023.881104 
z"/>
<path fill="#35865F" opacity="1.000000" stroke="none" 
	d="
M1653.829590,1860.180664 
	C1648.288208,1853.697510 1644.894409,1847.301392 1640.859741,1841.338501 
	C1632.265747,1828.637207 1625.406494,1815.695679 1623.027100,1799.904785 
	C1620.781982,1785.004639 1615.643921,1770.380371 1610.335693,1756.173950 
	C1607.916138,1749.698364 1602.795166,1743.660278 1597.536255,1738.944092 
	C1588.313110,1730.673218 1581.332886,1721.648804 1579.659424,1709.025024 
	C1579.234253,1705.817505 1578.247803,1702.379517 1576.511841,1699.700195 
	C1565.453491,1682.632812 1566.428101,1664.626343 1572.204346,1644.477539 
	C1598.248047,1644.265625 1623.565063,1649.804932 1649.366943,1647.776978 
	C1666.405029,1646.437866 1683.436279,1645.010376 1701.986572,1645.056641 
	C1703.420532,1655.682983 1704.182983,1664.979126 1703.068726,1674.044556 
	C1701.144165,1689.703613 1704.973511,1704.155762 1709.733887,1718.708130 
	C1712.381592,1726.802002 1714.616943,1735.123291 1715.985107,1743.513916 
	C1717.087402,1750.273315 1719.013428,1756.210815 1723.528931,1761.442871 
	C1726.968018,1765.427734 1730.103271,1769.726929 1732.957642,1774.154541 
	C1743.745361,1790.887695 1755.723511,1806.372314 1771.988647,1818.439819 
	C1779.169312,1823.767456 1786.044189,1828.003662 1795.169189,1828.079590 
	C1803.406616,1828.148193 1810.809570,1830.595947 1816.407227,1837.088745 
	C1806.911499,1839.931030 1797.533813,1843.278442 1787.899780,1845.528564 
	C1744.430420,1855.681641 1700.538452,1862.407349 1653.829590,1860.180664 
z"/>
<path fill="#5EAD81" opacity="1.000000" stroke="none" 
	d="
M1680.235596,2742.694580 
	C1674.385620,2749.604980 1668.505127,2754.837402 1663.602417,2760.865234 
	C1653.280273,2773.556396 1643.599243,2786.767334 1633.375488,2799.541504 
	C1630.135132,2803.590332 1626.007935,2806.929443 1621.192383,2811.365723 
	C1601.006226,2814.833008 1582.279053,2818.546143 1564.731079,2827.267334 
	C1558.998535,2830.116211 1552.065186,2830.703857 1545.599243,2831.873779 
	C1540.400513,2832.814453 1534.937134,2832.500977 1529.842041,2833.759766 
	C1520.473267,2836.073730 1511.392822,2835.423340 1502.396484,2832.547363 
	C1485.462280,2827.134277 1468.573975,2827.241699 1451.410400,2831.675293 
	C1438.543457,2834.998779 1425.625977,2836.735596 1412.100220,2833.738525 
	C1406.001099,2832.386963 1399.067505,2834.801270 1390.775146,2835.763672 
	C1388.984863,2832.319580 1388.931885,2828.619385 1390.006958,2821.528809 
	C1391.242676,2816.602539 1391.350464,2815.066406 1391.458252,2813.530029 
	C1391.194580,2790.250488 1390.930786,2766.970947 1391.096558,2741.864990 
	C1404.084106,2739.348145 1416.637207,2738.273682 1429.201782,2738.116211 
	C1436.407593,2738.025635 1443.731079,2738.899902 1450.831421,2740.240967 
	C1485.868408,2746.857910 1521.073730,2746.510742 1555.467529,2738.383545 
	C1576.452637,2733.425049 1596.269653,2723.471191 1616.529541,2715.552002 
	C1619.549683,2714.371582 1622.681519,2712.542480 1624.807129,2710.161621 
	C1637.648682,2695.777588 1655.465698,2692.432861 1672.827393,2688.281494 
	C1690.235840,2684.118896 1707.794800,2680.584961 1726.860352,2676.507324 
	C1723.162964,2689.426270 1712.270386,2698.576172 1704.259399,2709.796631 
	C1696.623779,2720.491211 1688.536621,2730.863281 1680.235596,2742.694580 
z"/>
<path fill="#42956A" opacity="1.000000" stroke="none" 
	d="
M1817.957153,1836.879883 
	C1810.809570,1830.595947 1803.406616,1828.148193 1795.169189,1828.079590 
	C1786.044189,1828.003662 1779.169312,1823.767456 1771.988647,1818.439819 
	C1755.723511,1806.372314 1743.745361,1790.887695 1732.957642,1774.154541 
	C1730.103271,1769.726929 1726.968018,1765.427734 1723.528931,1761.442871 
	C1719.013428,1756.210815 1717.087402,1750.273315 1715.985107,1743.513916 
	C1714.616943,1735.123291 1712.381592,1726.802002 1709.733887,1718.708130 
	C1704.973511,1704.155762 1701.144165,1689.703613 1703.068726,1674.044556 
	C1704.182983,1664.979126 1703.420532,1655.682983 1703.779785,1645.027344 
	C1711.122559,1641.308472 1718.188354,1639.052979 1726.626465,1636.405396 
	C1740.803101,1633.282593 1753.665161,1630.793213 1766.389404,1627.730713 
	C1774.036133,1625.890503 1781.467896,1623.156982 1790.459961,1620.523560 
	C1795.751587,1630.768066 1799.182861,1641.479248 1803.499146,1651.821167 
	C1810.111450,1667.664185 1817.278564,1683.277466 1824.310669,1698.942993 
	C1832.978027,1718.251221 1842.095337,1737.366089 1850.353149,1756.846436 
	C1855.889526,1769.906616 1865.887695,1776.843140 1879.084473,1778.221680 
	C1891.470947,1779.515869 1904.180542,1779.537598 1916.573486,1778.329956 
	C1925.308228,1777.479004 1933.615112,1776.872681 1943.548828,1780.158203 
	C1932.659790,1787.808716 1920.483398,1795.606323 1907.649780,1802.105713 
	C1879.397217,1816.413696 1850.382568,1828.964600 1817.957153,1836.879883 
z"/>
<path fill="#42956A" opacity="1.000000" stroke="none" 
	d="
M1980.961182,2109.751953 
	C1986.688965,2110.286377 1992.058105,2112.694336 1997.465088,2115.014648 
	C2003.531982,2117.617676 2009.428711,2121.465088 2015.758911,2122.441406 
	C2032.143555,2124.968506 2048.702393,2127.318115 2065.235596,2127.669678 
	C2082.629639,2128.039551 2099.684814,2129.599609 2116.670166,2133.176025 
	C2137.739502,2137.612305 2158.952881,2136.990479 2180.143311,2133.950195 
	C2205.979492,2130.243164 2231.921143,2132.380127 2257.825684,2132.421387 
	C2258.482422,2132.422607 2259.146240,2132.578369 2259.794189,2132.718750 
	C2263.795410,2133.583496 2268.235840,2134.752686 2268.429932,2139.453857 
	C2268.547119,2142.295410 2266.871094,2146.020996 2264.742432,2147.985596 
	C2259.387939,2152.927490 2253.530273,2157.407959 2247.483887,2161.495850 
	C2239.607910,2166.820312 2236.526611,2173.938965 2235.935059,2183.328369 
	C2234.516602,2205.844971 2231.993896,2228.291748 2230.525391,2250.806152 
	C2230.013672,2258.655273 2230.926758,2266.661621 2231.819336,2274.524902 
	C2233.990234,2293.648193 2235.966553,2312.720703 2244.572754,2330.576904 
	C2247.583008,2336.822754 2247.002197,2344.799805 2248.068848,2353.609863 
	C2224.684326,2355.407715 2201.292480,2355.582031 2176.471191,2353.567871 
	C2174.882324,2344.756836 2176.129150,2337.709717 2174.284180,2331.595459 
	C2169.821045,2316.801270 2168.815430,2301.567627 2166.228760,2286.531982 
	C2163.599854,2271.251221 2163.967773,2256.042480 2164.182617,2240.760742 
	C2164.361572,2228.040771 2169.217041,2217.669678 2179.821533,2209.987793 
	C2185.689209,2205.737305 2191.139404,2200.813477 2196.279297,2195.692871 
	C2199.155273,2192.827148 2197.510742,2187.273926 2193.800293,2185.538086 
	C2191.405029,2184.417480 2188.874023,2183.514160 2186.321533,2182.813721 
	C2172.560059,2179.035400 2158.682861,2179.304443 2144.774902,2181.895996 
	C2126.140137,2185.368164 2107.881592,2184.871338 2089.609863,2178.896729 
	C2079.574219,2175.615234 2068.927002,2172.964844 2058.454834,2172.546875 
	C2042.459351,2171.908936 2026.622070,2170.658447 2010.837158,2168.155273 
	C2000.993652,2166.593750 1991.108887,2165.292969 1981.242554,2163.875488 
	C1981.034790,2146.446045 1980.827148,2129.016357 1980.961182,2109.751953 
z"/>
<path fill="#509C71" opacity="1.000000" stroke="none" 
	d="
M2276.119141,1328.114746 
	C2270.045410,1333.000732 2264.202148,1338.211670 2257.854736,1342.711304 
	C2239.224854,1355.918213 2220.394043,1368.842285 2200.816162,1382.933594 
	C2195.359863,1386.502441 2190.568848,1388.762329 2186.134521,1391.582764 
	C2178.276611,1396.580444 2170.822021,1402.228149 2162.853516,1407.030762 
	C2154.218750,1412.234619 2148.140625,1408.793091 2148.615479,1399.143555 
	C2148.841553,1394.548218 2149.535156,1389.786987 2151.078613,1385.481445 
	C2155.437012,1373.323975 2156.129639,1360.834595 2156.072754,1348.104248 
	C2155.912109,1312.159302 2155.961914,1276.213013 2156.064697,1240.267578 
	C2156.087402,1232.293945 2155.950195,1224.208862 2157.180420,1216.378296 
	C2158.649658,1207.026611 2156.732178,1199.131226 2150.200439,1192.536133 
	C2143.268555,1185.536987 2139.353760,1177.504517 2139.991211,1165.960449 
	C2176.095703,1164.195435 2212.221191,1163.980469 2250.066895,1165.476318 
	C2249.784180,1175.878906 2250.208740,1183.994507 2255.363770,1191.887573 
	C2257.790527,1195.603394 2258.828613,1200.486450 2259.573730,1204.992920 
	C2262.055664,1220.003662 2264.997803,1234.973022 2264.136963,1250.363647 
	C2263.843262,1255.617310 2263.694092,1261.200439 2265.107910,1266.169678 
	C2269.963867,1283.240112 2271.694336,1299.926270 2262.662354,1316.225098 
	C2262.355713,1316.778931 2262.304443,1317.504150 2262.243652,1318.159790 
	C2261.817627,1322.757080 2263.773438,1325.878662 2268.265381,1327.010254 
	C2270.814453,1327.652344 2273.496826,1327.764160 2276.119141,1328.114746 
z"/>
<path fill="#35865F" opacity="1.000000" stroke="none" 
	d="
M1980.927612,2165.725586 
	C1991.108887,2165.292969 2000.993652,2166.593750 2010.837158,2168.155273 
	C2026.622070,2170.658447 2042.459351,2171.908936 2058.454834,2172.546875 
	C2068.927002,2172.964844 2079.574219,2175.615234 2089.609863,2178.896729 
	C2107.881592,2184.871338 2126.140137,2185.368164 2144.774902,2181.895996 
	C2158.682861,2179.304443 2172.560059,2179.035400 2186.321533,2182.813721 
	C2188.874023,2183.514160 2191.405029,2184.417480 2193.800293,2185.538086 
	C2197.510742,2187.273926 2199.155273,2192.827148 2196.279297,2195.692871 
	C2191.139404,2200.813477 2185.689209,2205.737305 2179.821533,2209.987793 
	C2169.217041,2217.669678 2164.361572,2228.040771 2164.182617,2240.760742 
	C2163.967773,2256.042480 2163.599854,2271.251221 2166.228760,2286.531982 
	C2168.815430,2301.567627 2169.821045,2316.801270 2174.284180,2331.595459 
	C2176.129150,2337.709717 2174.882324,2344.756836 2174.765381,2353.308594 
	C2174.489014,2355.237305 2173.136719,2355.757324 2173.136719,2355.757324 
	C2173.136719,2355.757324 2171.699707,2355.570801 2169.888672,2354.702148 
	C2165.502686,2354.335693 2162.927246,2354.837891 2160.352051,2355.339844 
	C2151.967041,2355.205078 2143.582275,2355.070312 2133.402588,2354.725586 
	C2123.899902,2343.810303 2115.993408,2333.238770 2108.607422,2322.315674 
	C2106.465332,2319.147705 2104.768311,2315.004639 2104.651367,2311.252930 
	C2103.985596,2289.920410 2103.929688,2268.599854 2120.560059,2251.820312 
	C2121.938477,2250.429688 2123.088867,2248.761719 2124.108643,2247.079102 
	C2125.664062,2244.512695 2124.026611,2239.835205 2121.072510,2238.661865 
	C2118.647217,2237.698242 2116.056641,2236.497559 2113.544189,2236.508545 
	C2093.024170,2236.597656 2072.216797,2234.926758 2052.068604,2237.799316 
	C2032.880737,2240.534912 2015.257690,2237.817871 1997.382568,2232.521973 
	C1992.948486,2231.208496 1988.565674,2229.722168 1982.699341,2228.139648 
	C1981.030518,2207.834473 1980.821533,2187.705322 1980.927612,2165.725586 
z"/>
<path fill="#64B787" opacity="1.000000" stroke="none" 
	d="
M1278.269775,3122.984131 
	C1296.870850,3128.310059 1315.935303,3128.173340 1335.041748,3128.109619 
	C1342.013184,3128.086182 1349.555786,3126.358154 1356.736328,3132.427246 
	C1354.553711,3146.495850 1344.420044,3160.189453 1351.658081,3177.196045 
	C1330.332397,3185.625488 1308.817505,3192.506104 1287.216675,3199.105225 
	C1231.917603,3215.998779 1176.594238,3232.812988 1121.253906,3249.571533 
	C1079.281128,3262.281982 1037.270996,3274.870117 995.262939,3287.463379 
	C992.722778,3288.224854 990.051941,3288.550781 986.318420,3287.924316 
	C987.144897,3281.399658 992.029968,3279.532227 996.582642,3277.333252 
	C1002.737915,3274.360596 1006.833008,3269.947754 1008.488953,3262.089844 
	C1026.572266,3253.635986 1043.400391,3245.791504 1060.336426,3238.187012 
	C1129.428955,3207.163330 1197.094971,3173.479248 1260.556030,3131.837158 
	C1266.037109,3128.240723 1272.345581,3125.905273 1278.269775,3122.984131 
z"/>
<path fill="#42956A" opacity="1.000000" stroke="none" 
	d="
M2277.347656,1327.487183 
	C2273.496826,1327.764160 2270.814453,1327.652344 2268.265381,1327.010254 
	C2263.773438,1325.878662 2261.817627,1322.757080 2262.243652,1318.159790 
	C2262.304443,1317.504150 2262.355713,1316.778931 2262.662354,1316.225098 
	C2271.694336,1299.926270 2269.963867,1283.240112 2265.107910,1266.169678 
	C2263.694092,1261.200439 2263.843262,1255.617310 2264.136963,1250.363647 
	C2264.997803,1234.973022 2262.055664,1220.003662 2259.573730,1204.992920 
	C2258.828613,1200.486450 2257.790527,1195.603394 2255.363770,1191.887573 
	C2250.208740,1183.994507 2249.784180,1175.878906 2251.925293,1165.773071 
	C2282.821777,1164.167236 2313.579834,1163.975586 2347.415039,1164.780884 
	C2355.043457,1168.266479 2361.144531,1169.175049 2362.632080,1175.142456 
	C2367.736328,1195.615356 2375.631348,1215.865845 2371.594482,1237.476929 
	C2369.522705,1248.567871 2372.245605,1258.358032 2376.062012,1268.282471 
	C2376.062012,1268.282471 2376.044189,1270.084839 2375.989258,1270.983398 
	C2357.769287,1278.084961 2342.299561,1289.311279 2325.915039,1298.814819 
	C2310.050537,1308.017090 2294.349121,1317.499878 2277.347656,1327.487183 
z"/>
<path fill="#35865F" opacity="1.000000" stroke="none" 
	d="
M2377.341797,1267.889160 
	C2372.245605,1258.358032 2369.522705,1248.567871 2371.594482,1237.476929 
	C2375.631348,1215.865845 2367.736328,1195.615356 2362.632080,1175.142456 
	C2361.144531,1169.175049 2355.043457,1168.266479 2349.276367,1165.052246 
	C2354.020752,1164.037964 2359.980469,1163.498291 2365.939941,1163.498291 
	C2454.911621,1163.498901 2543.883057,1163.533325 2632.854736,1163.663208 
	C2647.462402,1163.684570 2662.069336,1164.200073 2678.560303,1164.824951 
	C2678.018311,1166.072876 2675.642090,1167.601440 2673.159668,1167.798950 
	C2643.498291,1170.159546 2614.969238,1177.794312 2585.193848,1186.663452 
	C2577.360107,1188.536011 2570.745361,1189.292114 2564.464355,1191.167114 
	C2521.999268,1203.844604 2480.508057,1219.161377 2440.289307,1237.832886 
	C2427.710449,1243.672729 2415.176025,1249.609497 2400.408203,1256.342163 
	C2397.155029,1257.911377 2396.315918,1258.824707 2395.677490,1259.922485 
	C2389.992188,1262.447021 2384.306641,1264.971436 2377.341797,1267.889160 
z"/>
<path fill="#297E57" opacity="1.000000" stroke="none" 
	d="
M1279.267944,3122.010742 
	C1272.345581,3125.905273 1266.037109,3128.240723 1260.556030,3131.837158 
	C1197.094971,3173.479248 1129.428955,3207.163330 1060.336426,3238.187012 
	C1043.400391,3245.791504 1026.572266,3253.635986 1006.914856,3262.114014 
	C1000.983765,3262.731934 997.832275,3262.606201 994.680786,3262.480713 
	C1023.400757,3245.883789 1052.208130,3229.436279 1080.819336,3212.653809 
	C1120.459961,3189.401611 1157.728638,3162.810059 1192.447876,3132.654785 
	C1201.461548,3124.826172 1210.888428,3117.474121 1220.099121,3109.871094 
	C1245.276367,3089.088867 1267.674316,3065.470215 1292.366943,3041.617920 
	C1300.711548,3042.473145 1306.468506,3043.169678 1312.197144,3044.050537 
	C1319.866333,3045.229736 1327.530151,3046.458740 1335.166138,3047.834229 
	C1346.551392,3049.884766 1353.896484,3056.221924 1355.954468,3067.961914 
	C1336.113281,3081.930420 1316.279053,3095.908936 1296.426514,3109.861328 
	C1291.068115,3113.626953 1285.654419,3117.314209 1279.267944,3122.010742 
z"/>
<path fill="#509C71" opacity="1.000000" stroke="none" 
	d="
M1503.837769,2946.572266 
	C1492.062866,2959.332520 1480.311279,2970.862305 1468.092041,2981.873291 
	C1461.293091,2987.999512 1453.714844,2993.260986 1444.854004,2998.104980 
	C1440.953003,2990.471680 1436.216309,2986.024658 1429.330566,2984.542480 
	C1415.189453,2981.498779 1401.032959,2978.330811 1386.728027,2976.307617 
	C1375.495239,2974.718506 1364.549927,2977.224121 1353.983032,2981.751953 
	C1347.419556,2984.564209 1340.318970,2986.123291 1333.459473,2988.244873 
	C1338.019165,2980.199463 1342.443237,2972.073242 1347.164307,2964.123535 
	C1360.416016,2941.809326 1369.903564,2917.908447 1378.385742,2892.053711 
	C1390.779785,2897.534668 1402.064819,2904.405762 1413.694092,2910.634033 
	C1425.519653,2916.967773 1438.239746,2920.833252 1451.799438,2919.881836 
	C1468.674194,2918.697266 1482.363281,2927.196045 1496.696655,2933.771484 
	C1501.271240,2935.870117 1502.986816,2940.325195 1503.837769,2946.572266 
z"/>
<path fill="#69C08C" opacity="1.000000" stroke="none" 
	d="
M2621.051758,858.678955 
	C2636.311279,842.253906 2651.495605,825.758179 2666.863525,809.435059 
	C2674.031494,801.821777 2681.554688,794.542847 2688.664795,787.366577 
	C2691.783691,788.567688 2694.070312,788.784668 2695.338135,790.034729 
	C2719.330078,813.684937 2743.201172,837.457397 2767.151367,863.679138 
	C2761.025635,873.834290 2755.133789,881.771729 2748.572266,889.110718 
	C2743.642334,894.624512 2737.122314,898.224243 2729.668945,899.140930 
	C2710.278320,901.525574 2691.345947,901.046021 2674.782715,888.557617 
	C2668.994873,884.193726 2662.277832,880.633423 2657.626465,875.280151 
	C2647.770020,863.936768 2635.686523,858.828430 2621.051758,858.678955 
z"/>
<path fill="#297E57" opacity="1.000000" stroke="none" 
	d="
M2740.784424,1042.186646 
	C2728.642822,1055.326782 2716.858643,1068.823120 2704.238770,1081.486572 
	C2695.249512,1090.506958 2689.708740,1090.077271 2680.228760,1081.539429 
	C2676.285889,1077.988403 2672.674072,1074.064697 2668.969727,1070.254150 
	C2648.139404,1048.826904 2627.326416,1027.382690 2607.017578,1004.211853 
	C2610.811035,998.377563 2614.317383,994.432129 2617.329834,990.139954 
	C2622.908936,982.190063 2630.578613,979.290222 2639.847168,980.595093 
	C2645.746582,981.425720 2651.539551,983.012390 2657.379639,984.264099 
	C2675.552246,988.158875 2693.589355,992.988708 2711.941162,995.646545 
	C2725.788086,997.651978 2733.166504,1007.262146 2735.451904,1018.982483 
	C2736.970215,1026.767822 2738.989502,1034.455322 2740.784424,1042.186646 
z"/>
<path fill="#58A57B" opacity="1.000000" stroke="none" 
	d="
M2795.189941,890.449585 
	C2800.576172,895.320129 2806.124023,900.024536 2811.319092,905.090881 
	C2830.883545,924.171021 2828.813232,949.110046 2814.304932,968.215088 
	C2807.527832,977.139160 2798.981934,984.719971 2789.628662,991.948792 
	C2783.510254,977.049805 2779.696777,963.126282 2779.474609,948.163147 
	C2779.289062,935.679565 2773.286865,931.592712 2761.148682,933.984192 
	C2750.717041,936.039490 2740.526855,939.343933 2730.077881,941.273682 
	C2723.671143,942.456848 2716.671875,943.512390 2710.467041,942.174683 
	C2683.548584,936.371094 2658.507568,925.885681 2636.242920,909.352539 
	C2631.438477,905.784973 2626.471436,902.397644 2621.947266,898.500305 
	C2613.550049,891.266846 2604.012451,887.249695 2592.921387,886.966553 
	C2599.753906,879.630615 2606.586426,872.294739 2615.513672,865.222412 
	C2626.465332,872.434082 2636.021484,878.665344 2644.035645,886.478088 
	C2661.270264,903.279236 2681.975098,912.858643 2704.960449,918.175110 
	C2718.118164,921.218506 2731.139160,920.319031 2744.280762,916.750244 
	C2763.230957,911.604004 2779.697266,902.071045 2795.189941,890.449585 
z"/>
<path fill="#42956A" opacity="1.000000" stroke="none" 
	d="
M1332.528809,2988.989258 
	C1340.318970,2986.123291 1347.419556,2984.564209 1353.983032,2981.751953 
	C1364.549927,2977.224121 1375.495239,2974.718506 1386.728027,2976.307617 
	C1401.032959,2978.330811 1415.189453,2981.498779 1429.330566,2984.542480 
	C1436.216309,2986.024658 1440.953003,2990.471680 1443.624512,2998.672363 
	C1436.293823,3007.183594 1428.558838,3014.320312 1420.288086,3022.668945 
	C1411.501587,3029.217529 1403.065796,3034.291504 1395.042969,3039.951172 
	C1382.673584,3048.677246 1370.586792,3057.803955 1357.167358,3067.361328 
	C1353.896484,3056.221924 1346.551392,3049.884766 1335.166138,3047.834229 
	C1327.530151,3046.458740 1319.866333,3045.229736 1312.197144,3044.050537 
	C1306.468506,3043.169678 1300.711548,3042.473145 1293.543457,3041.013916 
	C1305.279175,3023.466797 1318.438599,3006.600342 1332.528809,2988.989258 
z"/>
<path fill="#509C71" opacity="1.000000" stroke="none" 
	d="
M2591.826660,887.528687 
	C2604.012451,887.249695 2613.550049,891.266846 2621.947266,898.500305 
	C2626.471436,902.397644 2631.438477,905.784973 2636.242920,909.352539 
	C2658.507568,925.885681 2683.548584,936.371094 2710.467041,942.174683 
	C2716.671875,943.512390 2723.671143,942.456848 2730.077881,941.273682 
	C2740.526855,939.343933 2750.717041,936.039490 2761.148682,933.984192 
	C2773.286865,931.592712 2779.289062,935.679565 2779.474609,948.163147 
	C2779.696777,963.126282 2783.510254,977.049805 2788.427490,992.659546 
	C2786.397461,997.143494 2783.959717,999.955933 2779.305664,1002.567749 
	C2769.212891,998.252625 2766.534912,990.850830 2765.051270,982.858582 
	C2764.208252,978.317932 2764.194092,973.622864 2763.341309,969.084778 
	C2761.833496,961.061096 2758.289062,957.134338 2750.171387,956.735291 
	C2741.664062,956.317200 2732.913574,956.538269 2724.573242,958.101501 
	C2713.771484,960.126038 2703.598389,959.437012 2693.372559,955.789185 
	C2677.796631,950.232788 2662.119629,944.958923 2646.549805,939.386414 
	C2630.122559,933.507019 2613.289307,929.442627 2595.986572,933.394897 
	C2583.195801,936.316528 2571.082764,935.183533 2558.814697,931.824524 
	C2558.451416,922.414856 2563.149414,915.339294 2569.438965,909.059875 
	C2576.488281,902.021790 2583.630127,895.076416 2591.826660,887.528687 
z"/>
<path fill="#42956A" opacity="1.000000" stroke="none" 
	d="
M2558.064453,933.074524 
	C2571.082764,935.183533 2583.195801,936.316528 2595.986572,933.394897 
	C2613.289307,929.442627 2630.122559,933.507019 2646.549805,939.386414 
	C2662.119629,944.958923 2677.796631,950.232788 2693.372559,955.789185 
	C2703.598389,959.437012 2713.771484,960.126038 2724.573242,958.101501 
	C2732.913574,956.538269 2741.664062,956.317200 2750.171387,956.735291 
	C2758.289062,957.134338 2761.833496,961.061096 2763.341309,969.084778 
	C2764.194092,973.622864 2764.208252,978.317932 2765.051270,982.858582 
	C2766.534912,990.850830 2769.212891,998.252625 2778.281738,1003.053467 
	C2773.596436,1010.021118 2767.718262,1016.302429 2759.441162,1022.565918 
	C2754.892090,1020.116516 2751.655518,1018.006165 2750.821045,1015.185303 
	C2749.158936,1009.565979 2748.645020,1003.576172 2747.962402,997.703918 
	C2746.111328,981.781006 2741.427490,977.307495 2725.322754,976.038940 
	C2716.115723,975.313721 2706.893066,974.588989 2697.744141,973.365601 
	C2681.223389,971.156555 2665.947754,964.627991 2650.203613,959.586792 
	C2630.623535,953.317200 2611.217041,951.752991 2595.568115,969.963623 
	C2591.899170,974.233276 2585.893311,976.494812 2580.962402,979.680237 
	C2578.022705,977.171509 2575.118652,974.619629 2572.137207,972.161682 
	C2560.168213,962.293579 2555.395264,949.624329 2558.064453,933.074524 
z"/>
<path fill="#35865F" opacity="1.000000" stroke="none" 
	d="
M2581.563965,980.817261 
	C2585.893311,976.494812 2591.899170,974.233276 2595.568115,969.963623 
	C2611.217041,951.752991 2630.623535,953.317200 2650.203613,959.586792 
	C2665.947754,964.627991 2681.223389,971.156555 2697.744141,973.365601 
	C2706.893066,974.588989 2716.115723,975.313721 2725.322754,976.038940 
	C2741.427490,977.307495 2746.111328,981.781006 2747.962402,997.703918 
	C2748.645020,1003.576172 2749.158936,1009.565979 2750.821045,1015.185303 
	C2751.655518,1018.006165 2754.892090,1020.116516 2758.301758,1023.201416 
	C2754.073242,1029.502930 2748.584961,1035.151367 2741.940430,1041.493164 
	C2738.989502,1034.455322 2736.970215,1026.767822 2735.451904,1018.982483 
	C2733.166504,1007.262146 2725.788086,997.651978 2711.941162,995.646545 
	C2693.589355,992.988708 2675.552246,988.158875 2657.379639,984.264099 
	C2651.539551,983.012390 2645.746582,981.425720 2639.847168,980.595093 
	C2630.578613,979.290222 2622.908936,982.190063 2617.329834,990.139954 
	C2614.317383,994.432129 2610.811035,998.377563 2606.410156,1003.084656 
	C2597.583740,996.444641 2589.874512,989.199402 2581.563965,980.817261 
z"/>
<path fill="#64B787" opacity="1.000000" stroke="none" 
	d="
M2794.459473,889.280762 
	C2779.697266,902.071045 2763.230957,911.604004 2744.280762,916.750244 
	C2731.139160,920.319031 2718.118164,921.218506 2704.960449,918.175110 
	C2681.975098,912.858643 2661.270264,903.279236 2644.035645,886.478088 
	C2636.021484,878.665344 2626.465332,872.434082 2616.651367,864.511841 
	C2616.856689,862.101318 2618.018799,860.664795 2620.116211,858.953674 
	C2635.686523,858.828430 2647.770020,863.936768 2657.626465,875.280151 
	C2662.277832,880.633423 2668.994873,884.193726 2674.782715,888.557617 
	C2691.345947,901.046021 2710.278320,901.525574 2729.668945,899.140930 
	C2737.122314,898.224243 2743.642334,894.624512 2748.572266,889.110718 
	C2755.133789,881.771729 2761.025635,873.834290 2767.709961,864.884399 
	C2776.719238,871.780518 2785.224365,879.946167 2794.459473,889.280762 
z"/>
<path fill="#57A378" opacity="1.000000" stroke="none" 
	d="
M993.320557,3262.968018 
	C997.832275,3262.606201 1000.983765,3262.731934 1005.709351,3262.833496 
	C1006.833008,3269.947754 1002.737915,3274.360596 996.582642,3277.333252 
	C992.029968,3279.532227 987.144897,3281.399658 984.739075,3288.091797 
	C982.271179,3290.294434 980.259033,3291.174561 976.555542,3290.854492 
	C970.350220,3283.270264 964.728821,3285.487305 959.449585,3288.044678 
	C954.883484,3290.256104 955.319458,3293.887451 957.976318,3297.553223 
	C925.474609,3309.013672 892.760681,3319.730469 857.244385,3327.315918 
	C859.523254,3319.714844 865.003357,3318.530518 869.270020,3316.676514 
	C898.564819,3303.948486 928.009644,3291.566650 957.350952,3278.944580 
	C968.960083,3273.950439 980.427979,3268.628174 993.320557,3262.968018 
z"/>
<path fill="#64B787" opacity="1.000000" stroke="none" 
	d="
M1610.109863,1164.146240 
	C1606.815796,1165.648315 1601.694946,1167.698486 1596.543701,1167.778687 
	C1575.277954,1168.109619 1554.001953,1167.927734 1532.732178,1167.706177 
	C1529.488281,1167.672485 1526.256836,1166.438843 1521.538574,1165.053223 
	C1549.461548,1164.160400 1578.865356,1163.974365 1610.109863,1164.146240 
z"/>
<path fill="#64B787" opacity="1.000000" stroke="none" 
	d="
M959.339600,3297.437988 
	C955.319458,3293.887451 954.883484,3290.256104 959.449585,3288.044678 
	C964.728821,3285.487305 970.350220,3283.270264 975.416382,3290.773193 
	C970.880005,3293.702148 965.791443,3295.512451 959.339600,3297.437988 
z"/>
<path fill="#60B484" opacity="1.000000" stroke="none" 
	d="
M2761.097900,2327.112549 
	C2760.360840,2318.993408 2764.101318,2313.371094 2774.420898,2312.127686 
	C2771.322510,2316.947510 2766.824951,2321.872559 2761.097900,2327.112549 
z"/>
<path fill="#297E57" opacity="1.000000" stroke="none" 
	d="
M1749.735840,2348.312988 
	C1741.927002,2352.068359 1732.244507,2350.979736 1721.199707,2349.519775 
	C1729.240845,2348.601318 1738.652710,2348.238525 1749.735840,2348.312988 
z"/>
<path fill="#60B484" opacity="1.000000" stroke="none" 
	d="
M2713.414795,2351.419434 
	C2714.716797,2347.688477 2717.549561,2344.938477 2723.137207,2347.420410 
	C2720.868408,2349.240234 2717.776855,2350.505615 2713.414795,2351.419434 
z"/>
<path fill="#297E57" opacity="1.000000" stroke="none" 
	d="
M1984.976318,2651.244629 
	C1984.304199,2648.080078 1984.265869,2643.714111 1984.611572,2638.103516 
	C1985.200562,2641.253662 1985.405396,2645.648438 1984.976318,2651.244629 
z"/>
<path fill="#297E57" opacity="1.000000" stroke="none" 
	d="
M2161.173096,2355.765625 
	C2162.927246,2354.837891 2165.502686,2354.335693 2169.391602,2354.173340 
	C2167.801758,2355.072754 2164.897949,2355.632080 2161.173096,2355.765625 
z"/>
<path fill="#5EAD81" opacity="1.000000" stroke="none" 
	d="
M1549.093262,3118.759277 
	C1549.241089,3115.737793 1550.923584,3113.658936 1555.237061,3115.533203 
	C1554.036133,3116.954590 1552.110962,3117.922607 1549.093262,3118.759277 
z"/>
<path fill="#64B787" opacity="1.000000" stroke="none" 
	d="
M1662.506470,1163.928955 
	C1660.810059,1166.557495 1657.488892,1167.313354 1652.966064,1164.862793 
	C1655.051880,1164.025635 1658.048462,1163.776489 1662.506470,1163.928955 
z"/>
<path fill="#64B787" opacity="1.000000" stroke="none" 
	d="
M1702.675293,1163.928711 
	C1701.803223,1164.630005 1699.639648,1164.898926 1696.755371,1164.679443 
	C1697.817749,1163.959473 1699.600708,1163.727905 1702.675293,1163.928711 
z"/>
<path fill="#60B484" opacity="1.000000" stroke="none" 
	d="
M2733.477295,2344.353516 
	C2734.307129,2343.170654 2736.398926,2341.968750 2739.702637,2340.593506 
	C2738.856201,2341.725098 2736.797852,2343.030029 2733.477295,2344.353516 
z"/>
<path fill="#57A378" opacity="1.000000" stroke="none" 
	d="
M1390.541260,2814.517578 
	C1391.350464,2815.066406 1391.242676,2816.602539 1390.884521,2820.436523 
	C1390.297485,2820.324463 1389.960815,2817.914795 1390.541260,2814.517578 
z"/>
<path fill="#297E57" opacity="1.000000" stroke="none" 
	d="
M1707.174805,2348.672363 
	C1708.245850,2348.981689 1706.704224,2350.016602 1706.704224,2350.016602 
	C1706.704224,2350.016602 1704.827026,2349.854492 1704.387695,2349.393311 
	C1704.666748,2348.742432 1705.385254,2348.552979 1707.174805,2348.672363 
z"/>
<path fill="#297E57" opacity="1.000000" stroke="none" 
	d="
M1563.488770,2349.367188 
	C1563.617798,2350.815430 1562.539551,2351.389404 1560.265503,2351.258789 
	C1560.011230,2349.754150 1561.081909,2349.067139 1563.488770,2349.367188 
z"/>
<path fill="#5EAD81" opacity="1.000000" stroke="none" 
	d="
M2396.428223,1259.390747 
	C2396.315918,1258.824707 2397.155029,1257.911377 2399.032715,1256.779541 
	C2399.040039,1257.276001 2398.142578,1258.103516 2396.428223,1259.390747 
z"/>
</svg>